<?xml version="1.0" standalone="no"?>
<!DOCTYPE svg PUBLIC "-//W3C//DTD SVG 1.1//EN" "http://www.w3.org/Graphics/SVG/1.1/DTD/svg11.dtd" >
<svg xmlns="http://www.w3.org/2000/svg" xmlns:xlink="http://www.w3.org/1999/xlink" version="1.1">
<metadata></metadata>
<defs>
<font id="nimbus_roman_no9_lregular" horiz-adv-x="1024" >
<font-face units-per-em="2048" ascent="1638" descent="-410" />
<missing-glyph horiz-adv-x="512" />
<glyph horiz-adv-x="0" />
<glyph unicode="&#xd;" horiz-adv-x="681" />
<glyph unicode=" "  horiz-adv-x="512" />
<glyph unicode="&#x09;" horiz-adv-x="512" />
<glyph unicode="&#xa0;" horiz-adv-x="512" />
<glyph unicode="!" horiz-adv-x="681" d="M266 88q0 47 32 80t77 33t77.5 -33t32.5 -80t-31.5 -76.5t-80.5 -29.5q-45 0 -76 29.5t-31 76.5zM266 1227q0 72 29 114.5t80 42.5q109 0 108 -163q0 -27 -4 -76l-92 -785h-27l-18 222q-8 109 -35 282q-41 268 -41 363z" />
<glyph unicode="&#x22;" horiz-adv-x="835" d="M158 1300q0 35 25.5 59.5t62.5 24.5q35 0 60.5 -24.5t25.5 -56.5q0 -94 -51 -338l-15 -82h-43q-66 346 -65 417zM504 1300q0 35 25.5 59.5t62.5 24.5q35 0 60.5 -24.5t25.5 -56.5q0 -94 -51 -338l-15 -82h-43q-66 346 -65 417z" />
<glyph unicode="#" d="M10 442v113h238l43 274h-225v113h241l64 414h118l-63 -414h272l62 414h119l-62 -414h199v-113h-215l-41 -274h205v-113h-224l-63 -442h-119l64 442h-275l-67 -442h-119l67 442h-219zM367 555h274l41 274h-272z" />
<glyph unicode="$" d="M90 104v267h31q37 -162 121 -237t229 -77v578q-178 100 -250 170q-115 106 -115 243.5t111 225.5q51 39 103.5 57.5t150.5 28.5v129h70v-129q231 -27 329 -109v-227h-30q-27 131 -98.5 197.5t-200.5 83.5v-504q186 -109 250.5 -157t103.5 -112q41 -68 41 -184 q0 -150 -107 -239q-55 -45 -115.5 -68t-172.5 -41v-178h-70v178q-129 4 -209 25.5t-172 78.5zM258 1094q0 -72 42 -123t169 -137v471q-211 -43 -211 -211zM541 57q233 45 233 242q0 94 -45 152.5t-188 148.5v-543z" />
<glyph unicode="%" horiz-adv-x="1705" d="M125 852q0 195 138 349.5t315 154.5q47 0 75.5 -11.5t67.5 -44.5q66 -55 178 -55q96 0 167 31t153 108h79l-788 -1411h-98l718 1282q-106 -61 -225 -61q-80 0 -133 20q14 -51 14 -90q0 -113 -46 -225.5t-126 -193.5q-106 -113 -247 -113q-100 0 -171 76.5t-71 183.5z M281 786q0 -55 33.5 -89.5t86.5 -34.5q125 0 229.5 146t104.5 320q0 40 -18 101q-78 23 -113 53q-14 12 -26 12q-47 0 -101.5 -49t-99.5 -131q-96 -178 -96 -328zM920 264q0 193 138 344.5t312 151.5q100 0 155.5 -57.5t55.5 -161.5q0 -119 -47 -236t-129 -201 q-104 -104 -240 -104q-111 0 -178 72.5t-67 191.5zM1075 193q0 -57 35 -94.5t90 -37.5q104 0 199 117q59 72 94 168t35 184q0 68 -42.5 116t-101.5 48q-96 0 -176 -119q-57 -80 -95 -190.5t-38 -191.5z" />
<glyph unicode="&#x26;" horiz-adv-x="1593" d="M86 285q0 258 322 442l77 45q-72 199 -71 297q0 131 92 223t223 92q121 0 199 -69.5t78 -177.5q0 -111 -70 -187q-74 -82 -248 -164q123 -240 270 -421q186 248 187 372q0 47 -27.5 65.5t-103.5 26.5v43h442v-43q-78 -10 -117 -33.5t-75 -86.5l-54 -95 q-82 -141 -204 -307q141 -188 315 -188q55 0 95 23.5t89 84.5l31 -22q-45 -109 -128 -170.5t-181 -61.5q-168 0 -348 187q-115 -100 -216.5 -143.5t-226.5 -43.5q-164 0 -257 83t-93 229zM274 369q0 -119 78 -204t187 -85q121 0 288 133q-151 186 -311 489 q-133 -86 -187.5 -160.5t-54.5 -172.5zM575 1151q0 -127 82 -299q125 68 182.5 137.5t57.5 155.5q0 76 -46 125t-118 49q-70 0 -114 -47t-44 -121z" />
<glyph unicode="'" horiz-adv-x="368" d="M98 1300q0 35 26 59.5t62 24.5q35 0 60.5 -24.5t25.5 -56.5q0 -94 -51 -338l-14 -82h-43q-66 346 -66 417z" />
<glyph unicode="(" horiz-adv-x="681" d="M98 516q0 356 217 623q57 72 116.5 121.5t172.5 123.5l19 -32q-111 -88 -167.5 -157t-99.5 -163q-82 -188 -82 -510q0 -297 72 -497q41 -115 97.5 -185.5t179.5 -169.5l-25 -32q-137 84 -244 208q-135 156 -195.5 316t-60.5 354z" />
<glyph unicode=")" horiz-adv-x="681" d="M59 -330q111 90 167.5 158t99.5 164q82 184 82 508q0 297 -72 497q-43 115 -98.5 186.5t-178.5 168.5l25 32q137 -84 244 -208q135 -156 195.5 -315t60.5 -355q0 -356 -217 -623q-57 -72 -116.5 -121.5t-172.5 -123.5z" />
<glyph unicode="*" d="M141 791q0 39 29 59t98 33q72 14 110 28.5t101 53.5l-22 14q-57 39 -176 61q-139 27 -140 97q0 31 20.5 52t49.5 21q43 0 98 -65q88 -96 185 -150v27q0 84 -31 186q-20 72 -21 105q0 31 20.5 51t51.5 20t52.5 -21.5t21.5 -53.5q0 -29 -21 -95q-35 -98 -35 -170v-53l15 8 q70 39 147 131q72 84 115 84q33 0 53.5 -22.5t20.5 -56.5q0 -39 -23.5 -58.5t-81.5 -27.5q-109 -16 -229 -86l16 -11q84 -51 199 -69q68 -10 94.5 -31t26.5 -59q0 -35 -19.5 -55.5t-52.5 -20.5q-51 0 -123 88q-80 96 -143 123l-15 6v-14q0 -119 41 -230q16 -43 17 -65 q0 -33 -23.5 -57.5t-56.5 -24.5q-29 0 -50.5 22.5t-21.5 52.5q0 37 23 95q41 106 35 172l-2 35v14q-82 -51 -107 -74q-23 -18 -86 -92q-43 -49 -86 -49q-74 0 -74 72z" />
<glyph unicode="+" horiz-adv-x="1155" d="M61 451v135h449v450h135v-450h449v-135h-449v-451h-135v451h-449z" />
<glyph unicode="," horiz-adv-x="512" d="M115 92q0 51 33.5 84t87.5 33q70 0 116.5 -52.5t46.5 -129.5q0 -92 -63.5 -178.5t-165.5 -137.5l-18 39q168 115 167 217q0 29 -28 29q-2 0 -17 -4q-25 -4 -38 -4q-55 0 -88 27.5t-33 76.5z" />
<glyph unicode="-" horiz-adv-x="681" d="M80 397v129h504v-129h-504z" />
<glyph unicode="." horiz-adv-x="512" d="M143 88q0 47 34 82t79 35q47 0 81 -35t34 -82q0 -45 -35 -78t-82 -33q-45 0 -78 33t-33 78z" />
<glyph unicode="/" horiz-adv-x="569" d="M-18 -29l469 1413h137l-467 -1413h-139z" />
<glyph unicode="0" d="M49 688q0 180 54.5 342t142.5 248q112 106 274 106q201 0 328 -196.5t127 -511.5q0 -186 -54.5 -350t-142.5 -248q-109 -106 -266 -107q-182 0 -299 140q-72 86 -118 247.5t-46 329.5zM246 670q0 -645 266 -645t266 647q0 322 -67.5 490.5t-196.5 168.5q-268 0 -268 -661 z" />
<glyph unicode="1" d="M227 1169v29l369 186l16 -4v-1228q0 -74 37 -96.5t158 -24.5v-31h-565v31q104 2 145 26q49 29 49 133v928q0 96 -61 96q-35 0 -92 -22q-4 -2 -12.5 -5t-20.5 -8t-23 -10z" />
<glyph unicode="2" d="M61 0v25l365 387q266 283 266 532q0 129 -80 209t-209 80q-106 0 -170.5 -58.5t-126.5 -207.5l-43 10q45 190 132 280q117 127 294 127q160 0 269.5 -104t109.5 -258q0 -231 -262 -506l-344 -360h490q70 0 103.5 23.5t90.5 111.5l27 -10l-113 -281h-799z" />
<glyph unicode="3" d="M88 88q0 33 21.5 52.5t56.5 19.5q45 0 131 -51q98 -63 172 -64q113 0 190.5 88t77.5 217q0 106 -55 187t-152 116q-59 23 -217 23v26q180 63 258 142q82 82 82 198q0 96 -62.5 158t-162.5 62q-96 0 -169 -52.5t-136 -165.5l-31 9q59 162 137 231q113 100 267 100 q141 0 230 -77.5t89 -202.5q0 -84 -43 -147.5t-149 -135.5q117 -51 170 -108q92 -98 92 -264q0 -209 -150 -340q-72 -63 -184.5 -100.5t-231.5 -37.5q-106 0 -168.5 32t-62.5 85z" />
<glyph unicode="4" d="M25 342v131l643 911h90v-911h209v-131h-209v-342h-158v342h-575zM106 473h492v703z" />
<glyph unicode="5" d="M66 98q0 76 88 76q61 0 155 -68q82 -59 137 -59q121 0 203 101.5t82 248.5q0 152 -84 250t-260 156q-129 41 -231 41q-25 0 -25 16q0 6 2 10l223 486h428q33 0 52.5 10t42.5 43l18 -14l-78 -183q-8 -18 -47 -18h-401l-86 -174q180 -33 280.5 -73t167.5 -107 q78 -78 109.5 -156t31.5 -188q0 -229 -137 -365q-156 -160 -422 -160q-115 0 -182 34t-67 93z" />
<glyph unicode="6" d="M70 571q0 422 342 666q113 78 220 114t281 50l5 -33q-242 -39 -404 -195.5t-203 -388.5q96 57 145.5 75t116.5 18q176 0 280.5 -116t104.5 -312q0 -211 -119.5 -344.5t-310.5 -133.5q-195 0 -315 140q-66 76 -104.5 201.5t-38.5 258.5zM260 539q0 -238 78 -374t213 -136 q109 0 166 91t57 259q0 193 -72.5 298t-205.5 105q-111 0 -179 -51q-57 -43 -57 -192z" />
<glyph unicode="7" d="M41 1055l121 301h758v-33l-435 -1339h-133l406 1220h-445q-84 0 -128 -30.5t-109 -135.5z" />
<glyph unicode="8" d="M115 309q0 104 50 175t216 196q-162 141 -208 211t-46 170q0 139 110.5 231t278.5 92q154 0 253 -81.5t99 -208.5q0 -104 -61 -178t-213 -156q184 -137 250.5 -230.5t66.5 -212.5q0 -158 -109.5 -252t-293.5 -94q-174 0 -283.5 94.5t-109.5 243.5zM270 326 q0 -133 72 -215t188 -82q100 0 163 62.5t63 162.5q0 86 -43 150.5t-156 144.5l-123 90q-90 -72 -127 -143.5t-37 -169.5zM279 1124q0 -86 59.5 -161.5t196.5 -165.5q8 6 18 12q174 117 174 287q0 106 -61.5 168.5t-165.5 62.5q-96 0 -158.5 -57.5t-62.5 -145.5z" />
<glyph unicode="9" d="M61 901q0 207 122 345t304 138q199 0 326 -161.5t127 -415.5q0 -207 -89 -388t-249 -298q-104 -76 -206.5 -111t-274.5 -55l-6 41q233 41 396 198.5t226 407.5q-152 -117 -307 -117q-166 0 -267.5 115t-101.5 301zM250 971q0 -182 68.5 -290t185.5 -108q119 0 207 76 q30 25 30 78v80q0 520 -270 520q-92 0 -145 -63q-33 -41 -54.5 -124t-21.5 -169z" />
<glyph unicode=":" horiz-adv-x="569" d="M166 88q0 47 34 82t79 35q47 0 80.5 -35t33.5 -82q0 -45 -34.5 -78t-82.5 -33q-45 0 -77.5 33t-32.5 78zM166 823q0 47 34 82t79 35q47 0 80.5 -35t33.5 -82q0 -45 -34.5 -77.5t-82.5 -32.5q-45 0 -77.5 32.5t-32.5 77.5z" />
<glyph unicode=";" horiz-adv-x="569" d="M164 94q0 51 33.5 83t87.5 32q70 0 117 -52.5t47 -129.5q0 -92 -62 -178.5t-168 -137.5l-18 39q168 115 168 217q0 29 -29 29q-2 0 -16 -4q-25 -4 -39 -4q-57 0 -89 27.5t-32 78.5zM166 823q0 47 34 82t79 35q47 0 80.5 -35t33.5 -82q0 -45 -34.5 -77.5t-82.5 -32.5 q-45 0 -77.5 32.5t-32.5 77.5z" />
<glyph unicode="&#x3c;" horiz-adv-x="1155" d="M57 451v135l1041 471v-148l-860 -391l860 -391v-147z" />
<glyph unicode="=" horiz-adv-x="1155" d="M61 246v135h1033v-135h-1033zM61 655v136h1033v-136h-1033z" />
<glyph unicode="&#x3e;" horiz-adv-x="1155" d="M57 -20v147l861 391l-861 391v148l1041 -471v-135z" />
<glyph unicode="?" horiz-adv-x="909" d="M139.5 1087.5q-0.5 126.5 95 211.5t236.5 85q84 0 167 -32.5t136 -85.5q74 -74 74 -199q0 -117 -92 -258q-29 -43 -123 -158q-102 -131 -133 -315h-35q4 141 61 291l58 131q76 174 75 319q0 102 -64.5 174t-156.5 72q-76 0 -135 -39t-59 -88q0 -23 35 -63q43 -49 43 -89 q0 -37 -24 -60t-60 -23q-98 0 -98.5 126.5zM377 88q0 49 30.5 82t77.5 33q45 0 78 -34t33 -79q0 -47 -32 -76.5t-81 -29.5q-45 0 -75.5 29.5t-30.5 74.5z" />
<glyph unicode="@" horiz-adv-x="1886" d="M238 668q0 299 218 507.5t529 208.5q285 0 478.5 -173t193.5 -427q0 -199 -112.5 -345t-264.5 -146q-74 0 -126 41t-60 108q-111 -147 -256 -147q-76 0 -128.5 66.5t-52.5 162.5q0 113 45.5 222.5t126.5 191.5q102 102 230 102q53 0 82.5 -21.5t64.5 -84.5l21 78h141 l-133 -520q-4 -25 -4 -37q0 -94 80 -95q100 0 182 125t82 279q0 229 -173 393t-415 164q-231 0 -387 -156q-88 -90 -139 -225t-51 -278q0 -266 167.5 -438.5t430.5 -172.5q182 1 401 99l25 -62q-150 -68 -243 -92.5t-202 -24.5q-317 0 -534 201t-217 496zM803 557 q0 -80 32.5 -127t90.5 -47q90 0 153 119q86 154 92 315q6 127 -84 133q-82 6 -178 -102q-106 -119 -106 -291z" />
<glyph unicode="A" horiz-adv-x="1478" d="M31 0v39q74 2 114.5 56.5t139.5 279.5l426 1005h41l510 -1163q53 -115 83.5 -144.5t100.5 -33.5v-39h-522v39q82 2 112.5 16.5t30.5 53.5q0 49 -39 137l-84 196h-536l-95 -239q-16 -43 -16 -80q0 -84 139 -84v-39h-405zM442 526h473l-237 564z" />
<glyph unicode="B" horiz-adv-x="1366" d="M35 0v39q127 4 161.5 37t34.5 147v910q0 113 -33.5 144.5t-162.5 39.5v39h573q537 0 537 -348q0 -133 -82 -205q-66 -57 -199 -90q100 -25 152.5 -48.5t97.5 -64.5q100 -94 100 -231q0 -154 -114 -256q-123 -113 -381 -113h-684zM440 160q0 -49 27 -66.5t102 -17.5 q190 0 285 53q125 72 125 238q0 188 -172 260q-99 41 -367 41v-508zM440 750h195q143 0 222 64.5t79 184.5q0 137 -92 209t-269 72h-90q-45 0 -45 -61v-469z" />
<glyph unicode="C" horiz-adv-x="1366" d="M57 666q0 346 222 542q199 176 464 176q150 0 299 -49q47 -18 80 -18q68 0 86 67h43l19 -462h-47q-29 100 -57.5 153t-78.5 103q-125 125 -305 125q-223 0 -355 -166t-132 -445q0 -354 176 -512q135 -119 332 -119q242 0 457 207l36 -37q-94 -125 -239.5 -192.5 t-319.5 -67.5q-152 0 -287 55.5t-227 155.5q-166 186 -166 484z" />
<glyph unicode="D" horiz-adv-x="1478" d="M33 0v39q117 8 148.5 40.5t31.5 143.5v910q0 113 -29.5 143.5t-150.5 40.5v39h553q432 0 643 -215q174 -174 174 -457q0 -311 -209 -502q-94 -86 -247.5 -134t-332.5 -48h-581zM422 160q0 -49 22.5 -66.5t83.5 -17.5q254 0 402 84q250 145 250 510q0 340 -244 508 q-145 102 -408 102q-63 0 -84.5 -16.5t-21.5 -63.5v-1040z" />
<glyph unicode="E" horiz-adv-x="1251" d="M25 0v39q113 8 145.5 42t32.5 142v910q0 109 -33 142.5t-145 41.5v39h1087l6 -293h-51q-27 137 -82 176t-229 39h-277q-41 0 -54 -13.5t-13 -56.5v-454h315q141 0 180 51q27 33 45 143h47v-475h-47q-20 127 -59 162t-166 35h-315v-506q0 -55 14 -64q24 -24 188 -24h13h55 q219 0 313.5 52t169.5 218h58l-93 -346h-1105z" />
<glyph unicode="F" horiz-adv-x="1138" d="M25 0v39q117 8 147.5 44t30.5 163v887q0 109 -33 142.5t-145 41.5v39h1087l6 -293h-51q-27 137 -82 176t-229 39h-279q-41 0 -53 -13.5t-12 -56.5v-454h297q123 0 164.5 35.5t60.5 158.5h47v-475h-47q-18 125 -59 161t-166 36h-297v-447q0 -111 33.5 -144.5t152.5 -39.5 v-39h-573z" />
<glyph unicode="G" horiz-adv-x="1478" d="M66 666q0 313 197.5 515.5t504.5 202.5q137 0 279 -47q53 -20 90 -20q33 0 57.5 19.5t34.5 47.5h45l16 -432h-47q-68 166 -145 238q-123 113 -295 113q-217 0 -357 -156q-68 -76 -107.5 -206t-39.5 -273q0 -285 144.5 -450t394.5 -165q111 0 191.5 36t80.5 85v332 q0 127 -43 153q-33 20 -137 29v37h522v-37q-90 -8 -116.5 -37.5t-26.5 -120.5v-415q-61 -53 -222 -98.5t-292 -45.5q-346 0 -559 219q-170 178 -170 476z" />
<glyph unicode="H" horiz-adv-x="1478" d="M39 0v39q119 8 149.5 43t30.5 164v887q0 111 -30.5 142.5t-149.5 41.5v39h569v-39q-119 -10 -149.5 -42t-30.5 -142v-398h621v398q0 111 -31 142.5t-150 41.5v39h570v-39q-119 -10 -150 -42t-31 -142v-910q0 -109 33 -141.5t148 -42.5v-39h-570v39q119 8 150 43t31 164 v399h-621v-422q0 -109 33 -141.5t147 -42.5v-39h-569z" />
<glyph unicode="I" horiz-adv-x="681" d="M37 0v39q129 4 164 36.5t35 147.5v910q0 113 -34 144.5t-165 39.5v39h608v-39q-129 -6 -165 -39t-36 -145v-910q0 -113 37 -146.5t164 -37.5v-39h-608z" />
<glyph unicode="J" horiz-adv-x="796" d="M20 119q0 41 30 71.5t71 30.5q76 0 106 -104q10 -39 22.5 -53.5t33.5 -14.5q78 0 77 135v949q0 113 -32.5 144.5t-157.5 39.5v39h588v-39q-125 -8 -157 -39.5t-32 -144.5v-758q0 -193 -90 -298.5t-256 -105.5q-88 0 -145.5 41t-57.5 107z" />
<glyph unicode="K" horiz-adv-x="1478" d="M70 0v39q121 8 152.5 44t31.5 163v887q0 109 -33 142.5t-151 41.5v39h581v-39q-125 -8 -156.5 -40t-31.5 -144v-420l362 329q160 147 160 211q0 31 -19.5 44.5t-66.5 17.5q-28 0 -53 2v39h536v-39q-104 -8 -155 -34t-156 -126l-389 -385l477 -512q139 -150 190.5 -184.5 t131.5 -36.5v-39h-625v39q25 2 57 2q86 4 86 45q0 37 -74.5 135t-191.5 213l-217 215l-53 -43v-383q0 -113 32.5 -144.5t151.5 -39.5v-39h-577z" />
<glyph unicode="L" horiz-adv-x="1251" d="M25 0v39q113 8 145.5 42t32.5 142v910q0 109 -33 142.5t-145 41.5v39h577v-39q-121 -8 -155.5 -42t-34.5 -142v-969q0 -53 31.5 -68.5t144.5 -15.5h137q250 0 354 117q48 53 95 159h51l-99 -356h-1101z" />
<glyph unicode="M" horiz-adv-x="1820" d="M25 0v39q127 8 162.5 56t35.5 206v832q0 113 -33.5 144.5t-160.5 39.5v39h405l473 -1034l453 1034h407v-39q-115 -10 -146.5 -43t-31.5 -141v-910q0 -109 33 -142.5t145 -41.5v-39h-573v39q121 8 153.5 44t32.5 163v928l-524 -1174h-29l-514 1126v-825q0 -156 37 -206 t156 -56v-39h-481z" />
<glyph unicode="N" horiz-adv-x="1478" d="M25 0v39q127 8 162.5 56t35.5 206v903q-61 72 -97 92.5t-101 20.5v39h350l788 -991v690q0 188 -59 229q-43 25 -137 33v39h481v-39q-98 -10 -135 -37q-59 -41 -60 -225v-1078h-34l-906 1127v-803q0 -156 37 -206t156 -56v-39h-481z" />
<glyph unicode="O" horiz-adv-x="1478" d="M70 678q0 309 188 507.5t481 198.5q301 0 498 -215q172 -188 172 -499q0 -309 -189.5 -504t-492.5 -195q-135 0 -263 56.5t-218 152.5q-82 88 -129 220t-47 278zM303 674q0 -170 47 -314.5t127 -214.5q113 -100 258 -100q164 0 273 109q74 72 100 149q68 176 68 369 q0 379 -175 536q-115 103 -262 103q-172 0 -293 -133q-66 -72 -104.5 -210.5t-38.5 -293.5z" />
<glyph unicode="P" horiz-adv-x="1138" d="M33 0v39q117 10 144.5 44t27.5 163v887q0 111 -29 141.5t-143 42.5v39h540q145 0 268.5 -40t184.5 -108q84 -90 84 -223q0 -102 -52 -189t-145 -137q-123 -69 -351 -69h-7q-61 0 -141 6v-373q0 -113 35.5 -146.5t156.5 -37.5v-39h-573zM414 678q72 -6 116 -6 q356 0 357 301q0 158 -98.5 232.5t-305.5 74.5q-41 0 -55 -14.5t-14 -55.5v-532z" />
<glyph unicode="Q" horiz-adv-x="1478" d="M70 674q0 311 188 510.5t481 199.5t481.5 -198.5t188.5 -507.5q0 -344 -229 -549q-72 -61 -137.5 -92t-170.5 -51q125 -162 256.5 -235t307.5 -77v-36h-13q-23 -2 -71 -3q-498 0 -713 250l-96 113q-109 37 -169.5 74t-121.5 102q-182 199 -182 500zM303 686 q0 -180 46 -324.5t128 -216.5q113 -100 262 -100q176 0 295 131q61 72 101.5 213t40.5 293q0 174 -47.5 313.5t-129.5 212.5q-115 103 -254 103q-174 0 -299 -133q-63 -72 -103 -208t-40 -284z" />
<glyph unicode="R" horiz-adv-x="1366" d="M35 0v39q115 8 144.5 44t29.5 163v887q0 109 -29.5 140.5t-144.5 43.5v39h565q143 0 262 -37t178 -100q80 -90 80 -224q0 -152 -104 -235q-88 -72 -266 -107l421 -518q43 -51 81.5 -71.5t97.5 -24.5v-39h-330l-488 631l-114 -4v-404q0 -111 32.5 -143.5t151.5 -40.5v-39 h-567zM418 702q150 4 221.5 17.5t140.5 52.5q117 61 117 227q0 143 -91 212t-284 69q-61 0 -82.5 -15.5t-21.5 -58.5v-504z" />
<glyph unicode="S" horiz-adv-x="1138" d="M86 408h47q76 -186 176.5 -274.5t237.5 -88.5q113 0 182.5 64.5t69.5 166.5q0 78 -29 119q-80 121 -305 240q-172 90 -246 183t-74 216q0 160 109 256q106 94 246 94q98 0 217 -45q51 -24 87 -24h3q53 0 65 69h43l46 -436h-52q-41 154 -125 240q-108 112 -247 112h-2 q-94 0 -153.5 -53t-59.5 -137q0 -82 69.5 -155.5t231.5 -163.5q203 -109 293 -214.5t90 -232.5q0 -158 -121 -265.5t-297 -107.5q-123 0 -242 47q-61 23 -96 23q-23 0 -39 -19.5t-18 -48.5h-46z" />
<glyph unicode="T" horiz-adv-x="1251" d="M35 1008l12 348h1155l12 -348h-49q-35 170 -93 216t-232 46h-111v-1047q0 -113 35 -145.5t162 -38.5v-39h-598v39q127 8 159.5 42t32.5 165v1024h-110q-172 0 -230.5 -47t-95.5 -215h-49z" />
<glyph unicode="U" horiz-adv-x="1478" d="M29 1317v39h579v-39q-123 -10 -154.5 -42t-31.5 -142v-656q0 -180 51 -270q84 -145 301 -146q115 0 207 44.5t133 117.5q47 88 47 279v553q0 154 -37 204t-155 58v39h475v-39q-127 -16 -160 -61t-33 -201v-535q0 -219 -67 -338q-121 -211 -457 -211q-262 0 -388 128 t-126 395v639q0 113 -31.5 143.5t-152.5 40.5z" />
<glyph unicode="V" horiz-adv-x="1478" d="M33 1317v39h545v-39q-57 -4 -60 -4q-94 -6 -94 -64q0 -41 84 -227l309 -692l301 751q39 98 39 150q0 43 -32.5 62.5t-116.5 23.5v39h419v-39q-74 -4 -105.5 -37t-82.5 -154l-455 -1149h-30l-504 1125q-66 137 -103.5 175t-113.5 40z" />
<glyph unicode="W" horiz-adv-x="1933" d="M10 1317v39h502v-39q-78 -4 -105.5 -17.5t-27.5 -48.5q0 -37 22 -94l295 -770l219 578l-67 168q-53 123 -86 152.5t-121 31.5v39h547v-39q-158 -2 -158 -72q0 -33 31 -104q0 -2 5 -15.5t12 -29t7 -17.5l271 -698l256 694q33 92 33 154q0 41 -32 60.5t-110 27.5v39h406 v-39q-82 -16 -112 -41t-58 -105q-170 -457 -229.5 -626.5t-188.5 -567.5h-31l-327 867l-316 -867h-31l-395 1100q-57 145 -95 188.5t-116 51.5z" />
<glyph unicode="X" horiz-adv-x="1478" d="M20 0v39q78 6 119 38t178 195l322 396l-223 327q-150 213 -210.5 265.5t-160.5 56.5v39h619v-39l-58 -2q-98 -2 -98 -60q0 -66 174 -307l86 -121l231 283q82 102 82 141q0 35 -29.5 48.5t-113.5 17.5v39h487v-39q-98 -6 -151 -40t-154 -153l-299 -372l393 -562 q66 -88 106 -114.5t122 -36.5v-39h-608v39q49 4 55 4q102 2 102 59q0 45 -104 201l-195 287l-243 -303q-106 -133 -107 -176q0 -35 33 -50.5t123 -21.5v-39h-478z" />
<glyph unicode="Y" horiz-adv-x="1478" d="M45 1317v39h573v-39q-23 -2 -51 -2q-94 -6 -94 -60q0 -39 35 -90l303 -454l293 463q29 47 29 75q0 37 -31 51.5t-111 16.5v39h449v-39q-78 -6 -133.5 -52t-149.5 -182l-303 -462v-398q0 -117 37 -148.5t174 -35.5v-39h-627v39q139 6 173 40t34 167v356l-268 393 q-154 217 -206 268.5t-126 53.5z" />
<glyph unicode="Z" horiz-adv-x="1251" d="M18 0v31l895 1247h-452q-205 0 -275 -88q-47 -57 -69 -184h-54l41 350h1078v-31l-885 -1247h526q180 0 256 80q52 57 97 202h47l-49 -360h-1156z" />
<glyph unicode="[" horiz-adv-x="681" d="M180 -319v1675h432v-51h-184q-49 0 -70.5 -21.5t-21.5 -69.5v-1376q0 -106 100 -106h176v-51h-432z" />
<glyph unicode="\" horiz-adv-x="569" d="M-18 1384h137l469 -1413h-139z" />
<glyph unicode="]" horiz-adv-x="681" d="M70 -268h184q92 0 92 90v1376q0 106 -100 107h-176v51h432v-1675h-432v51z" />
<glyph unicode="^" horiz-adv-x="960" d="M49 608l371 748h123l370 -748h-139l-293 592l-293 -592h-139z" />
<glyph unicode="_" d="M0 -154h1024v-102h-1024v102z" />
<glyph unicode="`" horiz-adv-x="681" d="M39 1325q0 63 70 64q39 0 86 -48l301 -303h-82l-316 199q-59 39 -59 88z" />
<glyph unicode="a" horiz-adv-x="909" d="M76 199q0 111 74 178q66 57 132 91t306 130v125q0 170 -156 170q-61 0 -104 -29.5t-43 -70.5q0 -23 6 -50q4 -29 4 -32q0 -35 -27.5 -60.5t-64.5 -25.5q-35 0 -61.5 26.5t-26.5 61.5q0 96 99 162.5t245 66.5q184 0 254 -113q41 -66 41 -215v-399q0 -68 13 -93.5t48 -25.5 q43 0 90 39v-53q-53 -59 -93 -80.5t-91 -21.5q-63 0 -93 34.5t-38 114.5q-175 -149 -297 -149h-2q-94 0 -154.5 61t-60.5 158zM256 256q0 -66 38 -112t91 -46q70 0 150 47q33 18 43 39t10 68v297q-184 -68 -258 -131.5t-74 -153.5v-8z" />
<glyph unicode="b" d="M6 1276v33l60 16q137 39 237 74l10 -4v-627q31 76 111 125t174 49q154 0 257 -128t103 -316q0 -219 -138 -368.5t-341 -149.5q-123 0 -230.5 41.5t-107.5 89.5v1063q0 63 -19.5 83.5t-80.5 20.5q-23 0 -35 -2zM313 143q0 -39 59.5 -68.5t139.5 -29.5q127 0 196.5 94 t69.5 264q0 186 -70.5 298t-191.5 112q-80 0 -141.5 -47.5t-61.5 -106.5v-516z" />
<glyph unicode="c" horiz-adv-x="909" d="M51 436q0 250 160 391q131 115 289 115q129 0 222 -62.5t93 -148.5q0 -35 -28.5 -60.5t-69.5 -25.5q-70 0 -96 94l-13 45q-16 57 -40.5 78t-80.5 21q-125 0 -201.5 -99.5t-76.5 -257.5q0 -176 89 -287.5t228 -111.5q88 0 151.5 41.5t137.5 150.5l29 -18 q-80 -158 -156 -225q-113 -96 -248 -96q-170 0 -279.5 128t-109.5 328z" />
<glyph unicode="d" d="M55 420q0 217 125 369.5t301 152.5q111 0 215 -88v320q0 63 -18.5 83.5t-75.5 20.5q-29 0 -45 -2v33q186 49 301 90l10 -4v-1162q0 -72 17.5 -94t72.5 -22q10 0 48 2v-33l-301 -106l-9 6v131q-98 -137 -262 -137q-170 0 -274.5 121.5t-104.5 318.5zM231 502 q0 -188 78 -302t205 -114q92 0 148 61q34 39 34 62v471q0 82 -63.5 143.5t-145.5 61.5q-117 0 -186.5 -104.5t-69.5 -278.5z" />
<glyph unicode="e" horiz-adv-x="909" d="M51 438q0 264 152 398q119 106 276 106q164 0 262 -117q68 -86 88 -258h-630q6 -166 55 -270q90 -176 264 -176q98 0 171 49t147 166l32 -14q-63 -166 -175.5 -254t-258.5 -88q-176 0 -279.5 123.5t-103.5 334.5zM203 633h418q-20 133 -63.5 184t-137.5 51h-2 q-182 0 -215 -235z" />
<glyph unicode="f" horiz-adv-x="681" d="M41 0v31q111 6 140.5 37.5t29.5 144.5v643h-168v66h168q2 123 16.5 191.5t55.5 135.5q39 70 115.5 110t172.5 40q92 0 152.5 -36t60.5 -91q0 -35 -25.5 -59.5t-60.5 -24.5q-47 0 -92 74q-48 79 -107 79h-1q-117 0 -117 -182v-237h252v-66h-250v-643q0 -115 33 -146.5 t157 -35.5v-31h-532z" />
<glyph unicode="g" d="M57 -248q0 57 46.5 113.5t154.5 136.5q-63 31 -85.5 53.5t-22.5 55.5q0 59 94 141q12 10 88 82q-102 51 -146.5 114.5t-44.5 159.5q0 139 99.5 236.5t242.5 97.5q82 0 164 -31l45 -16q59 -20 113 -21h158v-79h-170q38 -86 38 -168q0 -151 -98 -236q-98 -86 -221 -86 q-20 0 -78 6q-2 0 -39 4q-41 -12 -82 -55t-41 -74q0 -49 160 -55l264 -12q113 -4 180.5 -63.5t67.5 -155.5q0 -115 -113 -207q-172 -139 -419 -139q-145 0 -250 58t-105 140zM201 -180q0 -68 82 -109t217 -41q174 0 280.5 55.5t106.5 143.5q0 55 -57.5 77.5t-196.5 22.5 q-207 0 -332 27q-63 -76 -81.5 -108.5t-18.5 -67.5zM311 686q0 -147 58.5 -238.5t150.5 -91.5q72 0 113 50.5t41 136.5q0 127 -62 245q-51 96 -149 97q-72 0 -112 -51.5t-40 -141.5v-6z" />
<glyph unicode="h" d="M18 0v31q88 12 110 40.5t22 137.5v965q0 66 -19.5 85t-85.5 19q-16 0 -25 -2v33l56 16q139 39 235 74l11 -6v-623q72 92 141 132t160 40q252 0 251 -326v-407q0 -106 19.5 -134t103.5 -44v-31h-434v31q88 8 113.5 40.5t25.5 137.5v405q0 217 -153 217q-59 0 -111.5 -29.5 t-115.5 -99.5v-493q0 -106 24.5 -137t114.5 -41v-31h-443z" />
<glyph unicode="i" horiz-adv-x="569" d="M33 0v31q106 6 134 36.5t28 141.5v475q0 68 -15.5 95.5t-52.5 27.5q-33 0 -70 -6l-16 -2v30l317 113l9 -6v-727q0 -111 25.5 -140.5t125.5 -37.5v-31h-485zM160 1294q0 43 30.5 74t71.5 31q45 0 76 -31t31 -74q0 -45 -31 -74.5t-76 -29.5q-43 0 -72.5 30.5t-29.5 73.5z " />
<glyph unicode="j" horiz-adv-x="569" d="M-143 -334q0 33 24.5 56.5t59.5 23.5q47 0 98 -65q47 -57 86 -58q47 0 70 37q28 49 28 235v13v776q0 123 -65 123q-35 0 -82 -6l-10 -2v32q164 51 319 111l10 -6v-936q0 -217 -88 -331.5t-258 -114.5q-84 0 -138 31.5t-54 80.5zM188 1294q0 43 31 74t72 31q45 0 75.5 -31 t30.5 -74q0 -45 -30.5 -74.5t-75.5 -29.5q-43 0 -73 30.5t-30 73.5z" />
<glyph unicode="k" d="M14 0v31q111 18 132.5 37.5t21.5 99.5v987q0 74 -18.5 99.5t-69.5 25.5q-13 0 -66 -4v33l62 16q178 49 256 74l8 -4v-860l281 249q47 41 47 70q0 20 -21.5 28.5t-81.5 10.5v29h418v-31h-16q-49 0 -95 -12q-96 -27 -331 -246l-60 -55l314 -398q63 -78 117.5 -111.5 t121.5 -37.5v-31h-446v31h39q43 0 43 30q0 14 -23 43q-6 6 -14 19l-6 8l-287 383v-377q0 -53 25.5 -77.5t87.5 -26.5l41 -2v-31h-480z" />
<glyph unicode="l" horiz-adv-x="569" d="M39 1276v33q203 49 326 90l8 -4v-1223q0 -84 27.5 -109.5t125.5 -31.5v-31h-483v31q96 8 127 36.5t31 110.5v977q0 72 -18.5 98.5t-67.5 26.5q-18 0 -64 -4h-12z" />
<glyph unicode="m" horiz-adv-x="1593" d="M33 0v31q86 2 114.5 30.5t28.5 112.5v518q0 74 -15.5 102.5t-56.5 28.5q-30 0 -65 -8v35q147 41 287 92l14 -4v-154q127 96 188.5 127t128.5 31q162 0 217 -172q160 172 334 172q238 0 238 -364v-422q0 -115 88 -121l53 -4v-31h-448v31q90 10 112.5 34.5t22.5 112.5v432 q0 127 -33 176.5t-121 49.5q-135 0 -223 -125v-516q0 -96 29.5 -129t117.5 -35v-31h-458v31q88 6 113.5 32.5t25.5 112.5v445q0 215 -135 215q-53 0 -112.5 -24t-98.5 -58q-31 -31 -31 -39v-578q0 -59 29 -80.5t110 -25.5v-31h-454z" />
<glyph unicode="n" d="M33 815v35q152 45 282 92l15 -4v-162q104 98 164.5 132t132.5 34q113 0 177 -81t64 -226v-469q0 -76 25 -101.5t100 -33.5v-31h-426v31q78 6 103.5 40.5t25.5 131.5v428q0 198 -148 198h-1q-51 0 -94 -23.5t-117 -92.5v-576q0 -55 28.5 -77.5t106.5 -28.5v-31h-434v31 q78 6 102.5 35.5t24.5 117.5v508q0 76 -16.5 103.5t-59.5 27.5q-39 0 -55 -8z" />
<glyph unicode="o" d="M59 463q0 211 126 345t327 134q197 0 324 -131t127 -332q0 -213 -131.5 -356t-324 -143t-320.5 138t-128 345zM244 563q0 -227 90 -395q70 -131 198 -131q115 0 180.5 98t65.5 273q0 211 -82 344t-211 133q-109 0 -175 -88t-66 -234z" />
<glyph unicode="p" d="M10 -410q90 8 117 35t27 107v958q0 72 -16.5 94.5t-67.5 22.5q-34 0 -52 -2v33q129 39 295 104l13 -4v-158q131 162 295 162q150 0 246 -123t96 -313q0 -223 -124 -374.5t-307 -151.5q-66 0 -109.5 18t-96.5 70v-322q0 -96 32.5 -124t147.5 -30v-36h-496v34zM326 180 q0 -45 70.5 -90t142.5 -45q111 0 179 105.5t68 275.5q0 178 -68.5 285.5t-182.5 107.5q-72 0 -140.5 -45t-68.5 -90v-504z" />
<glyph unicode="q" d="M49 420q0 221 130 372.5t323 151.5q110 0 235 -74l111 66h22v-1225q0 -66 22.5 -87t106.5 -40v-28h-483v34q109 8 145.5 39t36.5 117v385q-138 -151 -319 -151h-2q-143 0 -235.5 122.5t-92.5 317.5zM225 494q0 -102 30 -192.5t79 -135.5q61 -61 160 -62q102 0 176 64 q28 22 28 92v422q0 205 -190 205q-131 0 -207 -105.5t-76 -287.5z" />
<glyph unicode="r" horiz-adv-x="681" d="M10 0v31q98 18 122 40.5t24 100.5v512q0 68 -15.5 95.5t-54.5 27.5q-33 0 -72 -8v32q164 53 303 111l11 -4v-188q76 109 129 150.5t116 41.5q53 0 83 -28.5t30 -79.5q0 -43 -21.5 -68t-58.5 -25q-35 0 -82 41q-33 31 -53 31q-41 0 -92 -59.5t-51 -108.5v-461 q0 -88 34.5 -118.5t139.5 -34.5v-31h-492z" />
<glyph unicode="s" horiz-adv-x="796" d="M104 688q0 111 79 181.5t200 70.5q76 0 143 -25q31 -14 56 -14q8 0 28 17l4 4h23l8 -279h-31q-35 137 -86 194.5t-139 57.5q-70 0 -114 -39t-44 -100q0 -88 88 -140l222 -131q92 -55 132 -111.5t40 -131.5q0 -106 -85 -184t-204 -78q-53 0 -150 20q-63 16 -93.5 16 t-47.5 -24h-27v319h33q35 -152 88 -215q60 -71 169 -71h3q78 0 124 39.5t46 107.5q0 92 -106 154l-119 67q-131 74 -185.5 141.5t-54.5 153.5z" />
<glyph unicode="t" horiz-adv-x="569" d="M27 870q0 16 34 39q25 6 82.5 69.5t116.5 149.5q33 47 41 58q14 0 14 -27v-237h207v-66h-207v-586q0 -96 25 -140t82 -44q63 0 123 72l26 -23q-97 -155 -243 -155h-2q-182 0 -183 260v616h-108q-8 6 -8 14z" />
<glyph unicode="u" d="M18 893v29h299v-668q0 -63 43 -109.5t103 -46.5q94 0 180 70q39 31 39 108v482q0 76 -27.5 100.5t-124.5 28.5v35h324v-703q0 -72 23.5 -94.5t93.5 -22.5h10v-28q-160 -43 -281 -92l-8 4v170l-88 -88q-88 -88 -211 -88q-113 0 -180.5 72.5t-67.5 193.5v516 q0 72 -26.5 99.5t-100.5 31.5z" />
<glyph unicode="v" d="M39 891v31h401v-31q-53 -4 -73.5 -16.5t-20.5 -40.5q0 -33 19 -76l208 -525l203 531q12 31 12 61q0 57 -96 66v31h285v-31q-47 -4 -67.5 -29.5t-65.5 -130.5l-262 -657q-41 -102 -58 -103q-18 0 -37 54q-2 4 -8 20t-8 23l-246 587q-72 160 -100.5 197t-85.5 39z" />
<glyph unicode="w" horiz-adv-x="1478" d="M43 891v31h369v-31q-53 -6 -74 -20.5t-21 -47.5q0 -31 13 -61l202 -535l187 408q-12 37 -41 115q-31 82 -57.5 108.5t-83.5 32.5v31h415v-31q-72 -10 -95 -24.5t-23 -49.5q0 -27 34 -121l172 -458l185 454q35 86 35 135q0 27 -18.5 40.5t-72.5 23.5v31h252v-31 q-31 -10 -43 -27.5t-41 -83.5l-282 -708q-41 -101 -57.5 -101t-49.5 88l-186 484l-230 -492q-37 -80 -51 -80q-16 0 -53 90l-276 701q-35 78 -54.5 102.5t-54.5 26.5z" />
<glyph unicode="x" d="M35 0v31q51 4 76.5 22.5t72.5 81.5l234 338l-193 295q-47 72 -79.5 97.5t-77.5 25.5h-19v31h424v-31q-88 -2 -88 -45q0 -41 94 -182l29 -41q49 74 61 90q76 94 76 133t-82 45v31h324v-31q-104 -4 -166 -90l-170 -246l262 -401q49 -70 85 -96.5t83 -26.5v-31h-412v31 q51 4 66.5 13t15.5 36q0 18 -12 37l-186 286l-162 -251q-41 -63 -41 -84q0 -37 82 -37v-31h-297z" />
<glyph unicode="y" d="M29 893v29h422v-31q-66 -2 -92.5 -14.5t-26.5 -40.5q0 -31 20 -78l236 -518l198 565q8 18 9 35q0 51 -99 51v31h277v-31q-37 -4 -57.5 -23.5t-41.5 -68.5l-315 -836q-82 -221 -163 -315t-183 -94q-66 0 -109 33.5t-43 84.5q0 37 27 63.5t62 26.5q47 0 108 -22 q29 -14 51.5 -14t52 26.5t50.5 65.5q27 45 54.5 121.5t27.5 99.5q0 45 -91 207l-30 61l-6 17l-234 503q-25 53 -104 66z" />
<glyph unicode="z" horiz-adv-x="909" d="M55 0v31l545 829h-283q-92 0 -124.5 -33.5t-47.5 -146.5h-36l6 242h710v-31l-551 -830h283q160 0 203 54q35 45 59 170l37 -9l-29 -276h-772z" />
<glyph unicode="{" horiz-adv-x="983" d="M205 512q102 31 138 78t36 153v365q0 178 90 233q78 49 248 52v-23q-106 -27 -146.5 -82t-40.5 -170v-344q0 -127 -38.5 -180t-153.5 -84q115 -29 153.5 -82t38.5 -180v-344q0 -115 40.5 -170t146.5 -82v-23q-172 2 -248 52q-90 57 -90 235v363q0 106 -36 153t-138 80z " />
<glyph unicode="|" horiz-adv-x="409" d="M137 -29v1413h135v-1413h-135z" />
<glyph unicode="}" horiz-adv-x="983" d="M266 -348q106 27 146.5 82t40.5 170v344q0 127 38.5 180t153.5 84q-115 29 -153.5 81t-38.5 181v344q0 115 -40.5 170t-146.5 82v23q172 -2 248 -52q90 -57 90 -235v-363q0 -106 36 -153t138 -78q-102 -33 -138 -80t-36 -153v-365q0 -178 -90 -233q-78 -49 -248 -52v23z " />
<glyph unicode="~" horiz-adv-x="1107" d="M82 481q70 98 125 136t127 38q68 0 120 -18.5t191 -91.5q53 -29 121 -29q47 0 79 23t73 82l110 -66q-70 -98 -125 -136t-127 -38q-68 0 -120 18.5t-191 92.5q-53 29 -121 28q-47 0 -79 -22.5t-72 -81.5z" />
<glyph unicode="&#xa1;" horiz-adv-x="681" d="M199 -283q0 27 4 76l92 785h27l18 -222q10 -129 35 -282q41 -242 41 -361q0 -74 -29 -116.5t-80 -42.5q-109 0 -108 163zM199 856q0 47 30.5 76t79.5 29q45 0 77 -31t32 -76q0 -47 -33 -80t-78 -33q-47 0 -77.5 33t-30.5 82z" />
<glyph unicode="&#xa2;" d="M109 449q0 207 130 350t320 143q43 0 105 -10l90 254h71l-96 -277q154 -61 154 -172q0 -41 -24.5 -66.5t-63.5 -25.5t-66 23.5t-53 83.5l-207 -596q66 -25 121 -25q90 0 155.5 45t145.5 160l27 -17q-51 -106 -89 -159.5t-92 -100.5q-90 -78 -211 -77q-51 0 -114 18 l-101 -283h-69l104 308q-96 53 -143 120q-94 129 -94 304zM266 532q0 -111 32 -186t108 -145l235 661q-47 18 -96 19q-125 0 -202 -95.5t-77 -253.5z" />
<glyph unicode="&#xa3;" d="M25 111q0 70 51 112.5t135 42.5q45 0 94 -10q8 23 8 43q0 41 -45 373h-221v92h219q-14 74 -14 141q0 219 108.5 349t290.5 130q115 0 191 -54t76 -136q0 -47 -29 -78t-74 -31t-61.5 28t-18.5 110q-2 106 -114 106q-92 0 -143.5 -74.5t-51.5 -210.5q0 -90 23 -280h256v-92 h-248v-56l2 -57q0 -72 -51 -332q172 -72 305 -71q137 0 231 100q31 33 47 33q12 0 13 -10q0 -27 -28 -82.5t-61 -92.5q-102 -119 -256 -118q-66 0 -128 26.5t-166 98.5q-61 -72 -104.5 -99.5t-96.5 -27.5q-63 0 -101 34.5t-38 92.5zM78 117q0 -33 23.5 -54.5t60.5 -21.5 q55 0 94 47q35 41 35 68q0 12 -36 24.5t-73 12.5q-104 0 -104 -76z" />
<glyph unicode="&#xa4;" d="M-45 221l201 197q-84 121 -84 258q0 141 84 258l-201 201l102 98l197 -197q125 80 260 80q141 0 256 -80l201 197l98 -98l-197 -201q80 -119 80 -256q0 -135 -80 -260l197 -197l-98 -102l-201 200q-117 -84 -256 -83q-133 0 -260 83l-197 -200zM211 676q0 -127 89 -218 t214 -91t212 90t87 221q0 127 -87 217t-208 90q-129 0 -218 -90t-89 -219z" />
<glyph unicode="&#xa5;" d="M-109 1317v39h498v-39q-133 -2 -133 -60q0 -39 27 -92l241 -452l230 450q29 53 28 90q0 29 -28.5 46.5t-75.5 17.5h-29v39h400v-39q-78 -16 -131.5 -64.5t-110.5 -154.5l-189 -377h300v-82h-340l-15 -29v-155h355v-82h-355v-150q0 -109 33 -144.5t131 -39.5v-39h-500v39 q102 4 132 42t30 165v127h-356v82h356v155l-14 29h-342v82h295l-195 354q-84 152 -127 195t-115 47z" />
<glyph unicode="&#xa6;" horiz-adv-x="409" d="M137 -29v566h135v-566h-135zM137 819v565h135v-565h-135z" />
<glyph unicode="&#xa7;" d="M143 586q0 104 68 173.5t168 69.5q31 0 51 -2q-123 102 -164 164t-41 144q0 111 79 180t206 69q113 0 187.5 -57t74.5 -143q0 -51 -27.5 -80t-76.5 -29q-41 0 -69 24.5t-28 63.5q0 49 54 90q16 16 16 23q0 27 -37 46t-90 19q-78 0 -126 -39.5t-48 -105.5q0 -86 70 -145 l280 -232q182 -152 182 -317q0 -109 -66.5 -177.5t-170.5 -68.5h-37q115 -100 154 -160.5t39 -138.5q0 -117 -81 -188.5t-214 -71.5q-119 0 -201 59.5t-82 145.5q0 47 31.5 78.5t79.5 31.5q41 0 69.5 -24.5t28.5 -61.5q0 -43 -47 -84q-23 -18 -23 -30q0 -29 44 -50.5 t102 -21.5q82 0 130 43t48 115q0 59 -42 113.5t-140 121.5q-186 129 -268.5 234.5t-82.5 218.5zM252 647q0 -84 94 -178q170 -170 279 -170q57 0 99 41t42 94q0 82 -109 191q-72 72 -145.5 115.5t-120.5 43.5q-59 0 -99 -38.5t-40 -98.5z" />
<glyph unicode="&#xa8;" horiz-adv-x="681" d="M37 1174q0 39 29.5 69.5t68.5 30.5q43 0 74 -31t31 -72t-31 -70.5t-74 -29.5q-41 0 -69.5 29.5t-28.5 73.5zM444 1174q0 39 30 69.5t69 30.5q43 0 73.5 -31t30.5 -72t-30.5 -70.5t-73.5 -29.5q-41 0 -70 29.5t-29 73.5z" />
<glyph unicode="&#xa9;" horiz-adv-x="1556" d="M78 676q0 299 206 503.5t507 204.5q285 0 486.5 -207.5t201.5 -500.5q0 -295 -203 -500t-496 -205t-497.5 205t-204.5 500zM190 676q0 -252 174.5 -435.5t415.5 -183.5q240 0 413 183.5t173 437.5q0 250 -172.5 435t-405.5 185q-248 0 -423 -182t-175 -440zM389 678 q0 184 125 298t328 114q109 0 217 -46q29 -10 28 -34v-144h-34q-29 182 -222 183q-137 0 -210.5 -93.5t-73.5 -265.5q0 -170 75.5 -265t211.5 -95q92 0 149 40t104 136h33l-35 -156q-4 -20 -99 -40.5t-183 -20.5q-186 0 -300 107.5t-114 281.5z" />
<glyph unicode="&#xaa;" horiz-adv-x="565" d="M8 946q0 66 45 105q43 37 87 58t182 71v61q0 86 -74 86q-33 0 -62.5 -15.5t-29.5 -31.5q0 -8 4 -29q2 -6 2 -16q0 -20 -19.5 -35.5t-44.5 -15.5q-27 0 -46 18.5t-19 44.5q0 59 62.5 98t158.5 39q215 0 215 -196v-236q0 -45 5 -58t22 -13q26 -1 57 24v-37 q-61 -61 -121 -61q-41 0 -61.5 20.5t-30.5 69.5q-98 -90 -186 -90q-63 0 -104.5 39t-41.5 100zM137 993q0 -37 22.5 -63.5t55.5 -26.5q39 0 86 23q23 20 23 45v157q-109 -39 -148 -67.5t-39 -67.5z" />
<glyph unicode="&#xab;" d="M86 455l133 120q12 8 33 29l6 4q6 4 15.5 13.5t17.5 16.5t16 13q104 94 123 121q66 80 90 80q20 0 21 -21q0 -45 -111 -182q-104 -125 -154 -190q8 -10 15 -19l6 -8q242 -305 242 -346q0 -18 -19 -18q-12 0 -22 12q-162 160 -348 319zM479 455l133 120q12 8 33 29l6 4 q6 4 15.5 13.5t17.5 16.5t16 13q104 94 123 121q66 80 90 80q20 0 21 -21q0 -45 -111 -182q-104 -125 -153 -190q8 -10 14 -19l6 -8q242 -305 242 -346q0 -18 -19 -18q-12 0 -22 12q-162 160 -348 319z" />
<glyph unicode="&#xac;" horiz-adv-x="1155" d="M61 655v136h1033v-570h-136v434h-897z" />
<glyph unicode="&#xad;" horiz-adv-x="681" d="M80 397v129h504v-129h-504z" />
<glyph unicode="&#xae;" horiz-adv-x="1556" d="M78 676q0 297 204.5 502.5t497.5 205.5q295 0 497 -207.5t202 -510.5q0 -287 -205 -491t-494 -204q-293 0 -497.5 205t-204.5 500zM190 676q0 -252 174.5 -435.5t415.5 -183.5q236 0 411 182.5t175 428.5q0 262 -171 446t-415 184q-242 0 -416 -184t-174 -438zM449 311 v31q76 8 88 20.5t12 77.5v494q0 68 -12 80t-88 20v31h362q106 0 171 -51t65 -137q0 -147 -162 -213l116 -162q80 -111 156 -174v-17h-131q-53 0 -141 162q-29 53 -107 170h-98v-203q0 -66 12.5 -78t87.5 -20v-31h-331zM680 682h88q68 0 104.5 47t36.5 135q0 162 -145 162 h-84v-344z" />
<glyph unicode="&#xaf;" horiz-adv-x="681" d="M23 1120v111h636v-111h-636z" />
<glyph unicode="&#xb0;" horiz-adv-x="819" d="M117 1092q0 123 85 207.5t207.5 84.5t207.5 -85t85 -209q0 -123 -86 -207t-210 -84q-119 0 -204 86t-85 207zM197 1091.5q0 -90.5 62.5 -157t148.5 -66.5q88 0 151.5 65.5t63.5 158.5q0 90 -63.5 156.5t-149.5 66.5q-88 0 -150.5 -66.5t-62.5 -157z" />
<glyph unicode="&#xb1;" horiz-adv-x="1155" d="M61 0v135h1033v-135h-1033zM61 578v135h449v450h135v-450h449v-135h-449v-328h-135v328h-449z" />
<glyph unicode="&#xb2;" horiz-adv-x="614" d="M2 1141q43 125 96 172q72 72 201 71q119 0 193.5 -60t74.5 -157q0 -76 -39 -145.5t-133 -161.5l-176 -174h248q41 0 61.5 10.5t42.5 44.5l35 -14l-76 -174h-518v47l201 219q166 178 166 281q0 63 -44 109t-106 46q-111 0 -176 -143z" />
<glyph unicode="&#xb3;" horiz-adv-x="614" d="M29 639q0 33 20.5 54.5t51 21.5t83.5 -39q55 -41 107 -41q63 0 101 38t38 101q0 98 -84 146q-63 37 -108 28l-48 -6v59q106 37 150.5 75t44.5 93q0 47 -31.5 74t-87.5 27q-51 0 -88 -25.5t-84 -91.5l-51 37q53 104 117.5 149t158.5 45q92 0 157 -49t65 -121 q0 -80 -123 -167q178 -72 178 -232q0 -119 -113.5 -198.5t-283.5 -79.5t-170 102z" />
<glyph unicode="&#xb4;" horiz-adv-x="681" d="M190 1038l302 303q47 47 86 48q72 0 71 -66q0 -47 -61 -86l-316 -199h-82z" />
<glyph unicode="&#xb5;" d="M74 -303q0 74 24 215q25 137 25 199v811h180v-627q0 -88 46 -138.5t126 -50.5q147 0 225 130v686h181v-734q0 -133 65 -133q39 0 103 58v-17q-51 -66 -93.5 -91t-99.5 -25q-143 0 -149 184q-119 -184 -281 -184q-150 0 -240 151q8 -84 39 -199q37 -147 37 -221 q0 -158 -94 -157.5t-94 143.5z" />
<glyph unicode="&#xb6;" horiz-adv-x="927" d="M-45 977q0 201 101.5 290t326.5 89h539v-39q-119 -10 -150 -42t-31 -142v-1219q0 -109 32 -142.5t149 -41.5v-45h-316v1626h-119v-1626h-315v45q119 8 149.5 42.5t30.5 164.5v622q-96 2 -149 17.5t-105 52.5q-143 98 -143 348zM111 985q0 -195 55 -281t186 -100v707 q-102 -8 -153 -45q-88 -63 -88 -281z" />
<glyph unicode="&#xb7;" horiz-adv-x="512" d="M143 518q0 47 34 82t79 35q47 0 81 -35t34 -82q0 -45 -35 -77.5t-82 -32.5q-45 0 -78 32.5t-33 77.5z" />
<glyph unicode="&#xb8;" horiz-adv-x="681" d="M106 -408l29 64q76 -25 133 -25q51 0 82 25t31 65q0 39 -24.5 56.5t-84.5 17.5q-35 0 -57 -8l-14 10l84 203h71l-51 -133q31 6 53 6q82 0 129.5 -38t47.5 -103q0 -80 -69 -126t-187 -46q-92 0 -173 32z" />
<glyph unicode="&#xb9;" horiz-adv-x="614" d="M117 553v49q66 4 87 17.5t21 48.5v526q0 57 -16 57q-12 0 -88 -26v47l241 112l29 -6v-702q0 -41 23.5 -55.5t93.5 -18.5v-49h-391z" />
<glyph unicode="&#xba;" horiz-adv-x="634" d="M12 1092q0 131 87.5 211.5t226.5 80.5q131 0 214 -76.5t83 -197.5q0 -129 -90.5 -216t-223.5 -87q-129 0 -213 81t-84 204zM162 1165q0 -129 51 -221q39 -70 115 -70q145 0 145 179q0 117 -46 190.5t-120 73.5q-66 0 -105.5 -41t-39.5 -111z" />
<glyph unicode="&#xbb;" d="M90 831q0 20 21 21q25 0 90 -80q8 -18 125 -121q23 -23 47 -43l6 -4q20 -20 33 -29l133 -120l-64 -56q-188 -164 -348 -319q-10 -12 -20 -12q-20 0 -21 18q0 41 242 346l12 14l8 13l-153 190q-111 133 -111 182zM483 831q0 20 21 21q25 0 90 -80q8 -18 125 -121 q23 -23 47 -43l6 -4q20 -20 33 -29l133 -120l-64 -56q-188 -164 -348 -319q-10 -12 -20 -12q-20 0 -21 18q0 41 242 346l12 14l9 13l-154 190q-111 133 -111 182z" />
<glyph unicode="&#xbc;" horiz-adv-x="1536" d="M76 553v49q66 4 87 17.5t21 48.5v526q0 57 -16 57q-12 0 -88 -26v47l242 112l28 -6v-702q0 -41 23.5 -55.5t93.5 -18.5v-49h-391zM283 -29l927 1413h95l-922 -1413h-100zM846 184v101l416 544h96v-528h112v-117h-112v-184h-144v184h-368zM938 301h276v367z" />
<glyph unicode="&#xbd;" horiz-adv-x="1536" d="M63 553v49q66 4 87.5 17.5t21.5 48.5v526q0 57 -16 57q-12 0 -88 -26v47l241 112l29 -6v-702q0 -41 23.5 -55.5t93.5 -18.5v-49h-392zM207 -29l928 1413h94l-922 -1413h-100zM924 588q43 125 96 172q72 72 201 71q119 0 193.5 -60t74.5 -157q0 -76 -39 -145.5 t-133 -161.5l-176 -174h248q41 0 61 10.5t43 44.5l35 -14l-76 -174h-518v47l201 219q166 178 165 281q0 63 -44 109t-105 46q-111 0 -176 -143z" />
<glyph unicode="&#xbe;" horiz-adv-x="1536" d="M31 639q0 33 20.5 54.5t50.5 21.5q35 0 84 -39q55 -41 107 -41q63 0 101 38t38 101q0 98 -84 146q-63 37 -108 28l-47 -6v59q109 37 152.5 75t43.5 93q0 45 -30.5 73t-84.5 28q-57 0 -94 -24.5t-86 -92.5l-51 37q55 104 119.5 149t161.5 45q92 0 156.5 -49t64.5 -121 q0 -80 -125 -167q178 -72 178 -232q0 -119 -113.5 -198.5t-283.5 -79.5t-170 102zM283 -29l927 1413h95l-922 -1413h-100zM846 184v101l416 544h96v-528h112v-117h-112v-184h-144v184h-368zM938 301h276v367z" />
<glyph unicode="&#xbf;" horiz-adv-x="909" d="M61 -129q0 156 154 342q98 115 136.5 190.5t58.5 198.5h34q-4 -143 -61 -291l-57 -131q-76 -174 -76 -319q0 -102 64.5 -174t156.5 -72q74 0 134.5 39t60.5 88q0 23 -35 63q-43 49 -43 89q0 37 22.5 60t61.5 23q98 0 98 -126.5t-95 -211.5t-237 -85q-84 0 -167 32.5 t-136 85.5q-74 74 -74 199zM315 854q0 47 31 75.5t80 28.5q45 0 77 -30.5t32 -75.5t-33 -79t-78 -34q-47 0 -78 33t-31 82z" />
<glyph unicode="&#xc0;" horiz-adv-x="1478" d="M31 0v39q74 2 114.5 56.5t139.5 279.5l426 1005h41l510 -1163q53 -115 83.5 -144.5t100.5 -33.5v-39h-522v39q82 2 112.5 16.5t30.5 53.5q0 49 -39 137l-84 196h-536l-95 -239q-16 -43 -16 -80q0 -84 139 -84v-39h-405zM438 1759q0 63 70 64q39 0 86 -47l301 -303h-82 l-315 198q-59 39 -60 88zM442 526h473l-237 564z" />
<glyph unicode="&#xc1;" horiz-adv-x="1478" d="M31 0v39q74 2 114.5 56.5t139.5 279.5l426 1005h41l510 -1163q53 -115 83.5 -144.5t100.5 -33.5v-39h-522v39q82 2 112.5 16.5t30.5 53.5q0 49 -39 137l-84 196h-536l-95 -239q-16 -43 -16 -80q0 -84 139 -84v-39h-405zM442 526h473l-237 564zM580 1473l301 303 q47 47 86 47q72 0 71 -66q0 -47 -61 -86l-315 -198h-82z" />
<glyph unicode="&#xc2;" horiz-adv-x="1478" d="M31 0v39q74 2 114.5 56.5t139.5 279.5l426 1005h41l510 -1163q53 -115 83.5 -144.5t100.5 -33.5v-39h-522v39q82 2 112.5 16.5t30.5 53.5q0 49 -39 137l-84 196h-536l-95 -239q-16 -43 -16 -80q0 -84 139 -84v-39h-405zM412 1473l254 342h127l256 -342h-70l-250 210 l-248 -210h-69zM442 526h473l-237 564z" />
<glyph unicode="&#xc3;" horiz-adv-x="1478" d="M31 0v39q74 2 114.5 56.5t139.5 279.5l426 1005h41l510 -1163q53 -115 83.5 -144.5t100.5 -33.5v-39h-522v39q82 2 112.5 16.5t30.5 53.5q0 49 -39 137l-84 196h-536l-95 -239q-16 -43 -16 -80q0 -84 139 -84v-39h-405zM401 1524q23 100 77 153.5t130 53.5q72 0 144 -37 l49 -25q66 -31 108 -31q35 0 58.5 23t50.5 80h59q-33 -117 -82 -167t-133 -50q-66 0 -166 49l-47 22q-49 23 -84 23q-72 0 -104 -94h-60zM442 526h473l-237 564z" />
<glyph unicode="&#xc4;" horiz-adv-x="1478" d="M31 0v39q74 2 114.5 56.5t139.5 279.5l426 1005h41l510 -1163q53 -115 83.5 -144.5t100.5 -33.5v-39h-522v39q82 2 112.5 16.5t30.5 53.5q0 49 -39 137l-84 196h-536l-95 -239q-16 -43 -16 -80q0 -84 139 -84v-39h-405zM422 1608q0 39 29.5 69.5t68.5 30.5q43 0 74 -30.5 t31 -71.5t-31 -71t-74 -30q-41 0 -69.5 30t-28.5 73zM442 526h473l-237 564zM829 1608q0 39 30 69.5t69 30.5q43 0 73.5 -30.5t30.5 -71.5t-30.5 -71t-73.5 -30q-41 0 -70 30t-29 73z" />
<glyph unicode="&#xc5;" horiz-adv-x="1478" d="M31 0v39q74 2 114.5 56.5t139.5 279.5l426 1005h41l510 -1163q53 -115 83.5 -144.5t100.5 -33.5v-39h-522v39q82 2 112.5 16.5t30.5 53.5q0 49 -39 137l-84 196h-536l-95 -239q-16 -43 -16 -80q0 -84 139 -84v-39h-405zM442 526h473l-237 564zM516 1671q0 82 59.5 142.5 t143.5 60.5t144.5 -60.5t60.5 -144.5t-60.5 -143.5t-144.5 -59.5q-86 0 -144.5 59.5t-58.5 145.5zM586 1671q0 -55 39 -95t92 -40q57 0 97 39t40 94t-40 95t-93 40q-55 0 -95 -39t-40 -94z" />
<glyph unicode="&#xc6;" horiz-adv-x="1820" d="M0 0v39q66 8 97.5 36.5t82.5 123.5l502 991q18 35 18 57q0 33 -42 48.5t-142 19.5v41h1155v-289h-47q-14 98 -45 140t-101.5 58.5t-226.5 16.5h-178q-55 0 -55 -61v-471h227q186 0 234 61q27 39 37 137h43v-479h-43q-12 106 -41 147q-41 57 -160 58h-297v-488 q0 -76 20.5 -92t120.5 -16h156q166 0 240.5 49t162.5 217h49l-90 -344h-1044v39l35 4q92 10 119.5 44t27.5 134v311h-360l-58 -108q-131 -256 -131 -324q0 -49 140 -61h2v-39h-408zM489 612h326v654z" />
<glyph unicode="&#xc7;" horiz-adv-x="1366" d="M57 666q0 346 222 542q199 176 464 176q150 0 299 -49q47 -18 80 -18q68 0 86 67h43l19 -462h-47q-29 100 -57.5 153t-78.5 103q-125 125 -305 125q-223 0 -355 -166t-132 -445q0 -354 176 -512q135 -119 332 -119q242 0 457 207l36 -37q-92 -125 -238.5 -192.5 t-320.5 -67.5q-31 0 -49 2l-41 -106q31 6 53 6q82 0 129.5 -38t47.5 -103q0 -80 -69 -126t-187 -46q-92 0 -172 32l28 64q76 -25 133 -25q51 0 82 25t31 65q0 39 -24.5 56.5t-84.5 17.5q-35 0 -57 -8l-14 10l75 183q-256 37 -408.5 222t-152.5 464z" />
<glyph unicode="&#xc8;" horiz-adv-x="1251" d="M25 0v39q113 8 145.5 42t32.5 142v910q0 109 -33 142.5t-145 41.5v39h1087l6 -293h-51q-27 137 -82 176t-229 39h-277q-41 0 -54 -13.5t-13 -56.5v-454h315q141 0 180 51q27 33 45 143h47v-475h-47q-20 127 -59 162t-166 35h-315v-506q0 -55 14 -64q25 -25 201 -24h55 q219 0 313.5 52t169.5 218h58l-93 -346h-1105zM324 1759q0 63 69 64q39 0 86 -47l301 -303h-82l-315 198q-59 39 -59 88z" />
<glyph unicode="&#xc9;" horiz-adv-x="1251" d="M25 0v39q113 8 145.5 42t32.5 142v910q0 109 -33 142.5t-145 41.5v39h1087l6 -293h-51q-27 137 -82 176t-229 39h-277q-41 0 -54 -13.5t-13 -56.5v-454h315q141 0 180 51q27 33 45 143h47v-475h-47q-20 127 -59 162t-166 35h-315v-506q0 -55 14 -64q25 -25 201 -24h55 q219 0 313.5 52t169.5 218h58l-93 -346h-1105zM477 1473l301 303q47 47 86 47q72 0 72 -66q0 -47 -62 -86l-315 -198h-82z" />
<glyph unicode="&#xca;" horiz-adv-x="1251" d="M25 0v39q113 8 145.5 42t32.5 142v910q0 109 -33 142.5t-145 41.5v39h1087l6 -293h-51q-27 137 -82 176t-229 39h-277q-41 0 -54 -13.5t-13 -56.5v-454h315q141 0 180 51q27 33 45 143h47v-475h-47q-20 127 -59 162t-166 35h-315v-506q0 -55 14 -64q25 -25 201 -24h55 q219 0 313.5 52t169.5 218h58l-93 -346h-1105zM309 1473l254 342h127l256 -342h-69l-250 210l-248 -210h-70z" />
<glyph unicode="&#xcb;" horiz-adv-x="1251" d="M25 0v39q113 8 145.5 42t32.5 142v910q0 109 -33 142.5t-145 41.5v39h1087l6 -293h-51q-27 137 -82 176t-229 39h-277q-41 0 -54 -13.5t-13 -56.5v-454h315q141 0 180 51q27 33 45 143h47v-475h-47q-20 127 -59 162t-166 35h-315v-506q0 -55 14 -64q25 -25 201 -24h55 q219 0 313.5 52t169.5 218h58l-93 -346h-1105zM322 1608q0 39 29.5 69.5t68.5 30.5q43 0 73.5 -30.5t30.5 -71.5t-30.5 -71t-73.5 -30q-41 0 -69.5 30t-28.5 73zM729 1608q0 39 29.5 69.5t68.5 30.5q43 0 74 -30.5t31 -71.5t-31 -71t-74 -30q-41 0 -69.5 30t-28.5 73z" />
<glyph unicode="&#xcc;" horiz-adv-x="681" d="M37 0v39q129 4 164 36.5t35 147.5v910q0 113 -34 144.5t-165 39.5v39h608v-39q-129 -6 -165 -39t-36 -145v-910q0 -113 37 -146.5t164 -37.5v-39h-608zM39 1759q0 63 70 64q39 0 86 -47l301 -303h-82l-316 198q-59 39 -59 88z" />
<glyph unicode="&#xcd;" horiz-adv-x="681" d="M37 0v39q129 4 164 36.5t35 147.5v910q0 113 -34 144.5t-165 39.5v39h608v-39q-129 -6 -165 -39t-36 -145v-910q0 -113 37 -146.5t164 -37.5v-39h-608zM190 1473l302 303q47 47 86 47q72 0 71 -66q0 -47 -61 -86l-316 -198h-82z" />
<glyph unicode="&#xce;" horiz-adv-x="681" d="M23 1473l253 342h127l256 -342h-69l-250 210l-248 -210h-69zM37 0v39q129 4 164 36.5t35 147.5v910q0 113 -34 144.5t-165 39.5v39h608v-39q-129 -6 -165 -39t-36 -145v-910q0 -113 37 -146.5t164 -37.5v-39h-608z" />
<glyph unicode="&#xcf;" horiz-adv-x="681" d="M37 0v39q129 4 164 36.5t35 147.5v910q0 113 -34 144.5t-165 39.5v39h608v-39q-129 -6 -165 -39t-36 -145v-910q0 -113 37 -146.5t164 -37.5v-39h-608zM37 1608q0 39 29.5 69.5t68.5 30.5q43 0 74 -30.5t31 -71.5t-31 -71t-74 -30q-41 0 -69.5 30t-28.5 73zM444 1608 q0 39 30 69.5t69 30.5q43 0 73.5 -30.5t30.5 -71.5t-30.5 -71t-73.5 -30q-41 0 -70 30t-29 73z" />
<glyph unicode="&#xd0;" horiz-adv-x="1478" d="M33 0v39q117 8 148.5 41t31.5 143v422h-170v90h170v398q0 113 -29.5 143.5t-150.5 40.5v39h553q432 0 643 -215q174 -174 174 -457q0 -311 -209 -502q-94 -86 -247.5 -134t-332.5 -48h-581zM422 160q0 -49 22.5 -66.5t83.5 -17.5q254 0 402 84q250 145 250 510 q0 340 -244 508q-145 102 -412 102q-61 0 -81.5 -16.5t-20.5 -63.5v-465h299v-90h-299v-485z" />
<glyph unicode="&#xd1;" horiz-adv-x="1478" d="M25 0v39q127 8 162.5 56t35.5 206v903q-61 72 -97 92.5t-101 20.5v39h350l788 -991v690q0 188 -59 229q-43 25 -137 33v39h481v-39q-98 -10 -135 -37q-59 -41 -60 -225v-1078h-34l-906 1127v-803q0 -156 37 -206t156 -56v-39h-481zM401 1524q23 100 77 153.5t130 53.5 q72 0 144 -37l49 -25q66 -31 108 -31q35 0 58.5 23t50.5 80h59q-33 -117 -82 -167t-133 -50q-66 0 -166 49l-47 22q-49 23 -84 23q-72 0 -104 -94h-60z" />
<glyph unicode="&#xd2;" horiz-adv-x="1478" d="M70 678q0 309 188 507.5t481 198.5q301 0 498 -215q172 -188 172 -499q0 -309 -189.5 -504t-492.5 -195q-135 0 -263 56.5t-218 152.5q-82 88 -129 220t-47 278zM303 674q0 -170 47 -314.5t127 -214.5q113 -100 258 -100q164 0 273 109q74 72 100 149q68 176 68 369 q0 379 -175 536q-115 103 -262 103q-172 0 -293 -133q-66 -72 -104.5 -210.5t-38.5 -293.5zM438 1759q0 63 70 64q39 0 86 -47l301 -303h-82l-315 198q-59 39 -60 88z" />
<glyph unicode="&#xd3;" horiz-adv-x="1478" d="M70 678q0 309 188 507.5t481 198.5q301 0 498 -215q172 -188 172 -499q0 -309 -189.5 -504t-492.5 -195q-135 0 -263 56.5t-218 152.5q-82 88 -129 220t-47 278zM303 674q0 -170 47 -314.5t127 -214.5q113 -100 258 -100q164 0 273 109q74 72 100 149q68 176 68 369 q0 379 -175 536q-115 103 -262 103q-172 0 -293 -133q-66 -72 -104.5 -210.5t-38.5 -293.5zM590 1473l301 303q47 47 86 47q72 0 72 -66q0 -47 -62 -86l-315 -198h-82z" />
<glyph unicode="&#xd4;" horiz-adv-x="1478" d="M70 678q0 309 188 507.5t481 198.5q301 0 498 -215q172 -188 172 -499q0 -309 -189.5 -504t-492.5 -195q-135 0 -263 56.5t-218 152.5q-82 88 -129 220t-47 278zM303 674q0 -170 47 -314.5t127 -214.5q113 -100 258 -100q164 0 273 109q74 72 100 149q68 176 68 369 q0 379 -175 536q-115 103 -262 103q-172 0 -293 -133q-66 -72 -104.5 -210.5t-38.5 -293.5zM422 1473l254 342h127l256 -342h-70l-250 210l-247 -210h-70z" />
<glyph unicode="&#xd5;" horiz-adv-x="1478" d="M70 678q0 309 188 507.5t481 198.5q301 0 498 -215q172 -188 172 -499q0 -309 -189.5 -504t-492.5 -195q-135 0 -263 56.5t-218 152.5q-82 88 -129 220t-47 278zM303 674q0 -170 47 -314.5t127 -214.5q113 -100 258 -100q164 0 273 109q74 72 100 149q68 176 68 369 q0 379 -175 536q-115 103 -262 103q-172 0 -293 -133q-66 -72 -104.5 -210.5t-38.5 -293.5zM401 1524q23 100 77 153.5t130 53.5q72 0 144 -37l49 -25q66 -31 108 -31q35 0 58.5 23t50.5 80h59q-33 -117 -82 -167t-133 -50q-66 0 -166 49l-47 22q-49 23 -84 23 q-72 0 -104 -94h-60z" />
<glyph unicode="&#xd6;" horiz-adv-x="1478" d="M70 678q0 309 188 507.5t481 198.5q301 0 498 -215q172 -188 172 -499q0 -309 -189.5 -504t-492.5 -195q-135 0 -263 56.5t-218 152.5q-82 88 -129 220t-47 278zM303 674q0 -170 47 -314.5t127 -214.5q113 -100 258 -100q164 0 273 109q74 72 100 149q68 176 68 369 q0 379 -175 536q-115 103 -262 103q-172 0 -293 -133q-66 -72 -104.5 -210.5t-38.5 -293.5zM436 1608q0 39 30 69.5t69 30.5q43 0 73.5 -30.5t30.5 -71.5t-30.5 -71t-73.5 -30q-41 0 -70 30t-29 73zM844 1608q0 39 29.5 69.5t68.5 30.5q43 0 74 -30.5t31 -71.5t-31 -71 t-74 -30q-41 0 -69.5 30t-28.5 73z" />
<glyph unicode="&#xd7;" horiz-adv-x="1155" d="M78 115l401 403l-401 402l98 98l402 -404l403 404l98 -98l-403 -402l403 -403l-98 -99l-403 404l-402 -404z" />
<glyph unicode="&#xd8;" horiz-adv-x="1478" d="M70 676q0 311 188 509.5t483 198.5q180 0 359 -100l147 219h101l-181 -266q111 -102 156 -190q86 -160 86 -369q0 -311 -188.5 -509t-485.5 -198q-186 0 -358 103l-162 -238h-100l194 285q-109 98 -155 190q-84 162 -84 365zM303 676q0 -246 94 -424l631 926 q-127 133 -289 133q-201 0 -318.5 -171t-117.5 -464zM449 180q123 -135 290 -135q203 0 320 169t117 462q-1 246 -97 430z" />
<glyph unicode="&#xd9;" horiz-adv-x="1478" d="M29 1317v39h579v-39q-123 -10 -154.5 -42t-31.5 -142v-656q0 -180 51 -270q84 -145 301 -146q115 0 207 44.5t133 117.5q47 88 47 279v553q0 154 -37 204t-155 58v39h475v-39q-127 -16 -160 -61t-33 -201v-535q0 -219 -67 -338q-121 -211 -457 -211q-262 0 -388 128 t-126 395v639q0 113 -31.5 143.5t-152.5 40.5zM473 1759q0 63 70 64q39 0 86 -47l301 -303h-82l-316 198q-59 39 -59 88z" />
<glyph unicode="&#xda;" horiz-adv-x="1478" d="M29 1317v39h579v-39q-123 -10 -154.5 -42t-31.5 -142v-656q0 -180 51 -270q84 -145 301 -146q115 0 207 44.5t133 117.5q47 88 47 279v553q0 154 -37 204t-155 58v39h475v-39q-127 -16 -160 -61t-33 -201v-535q0 -219 -67 -338q-121 -211 -457 -211q-262 0 -388 128 t-126 395v639q0 113 -31.5 143.5t-152.5 40.5zM641 1473l301 303q47 47 86 47q72 0 72 -66q0 -47 -62 -86l-315 -198h-82z" />
<glyph unicode="&#xdb;" horiz-adv-x="1478" d="M29 1317v39h579v-39q-123 -10 -154.5 -42t-31.5 -142v-656q0 -180 51 -270q84 -145 301 -146q115 0 207 44.5t133 117.5q47 88 47 279v553q0 154 -37 204t-155 58v39h475v-39q-127 -16 -160 -61t-33 -201v-535q0 -219 -67 -338q-121 -211 -457 -211q-262 0 -388 128 t-126 395v639q0 113 -31.5 143.5t-152.5 40.5zM461 1473l254 342h127l256 -342h-70l-250 210l-248 -210h-69z" />
<glyph unicode="&#xdc;" horiz-adv-x="1478" d="M29 1317v39h579v-39q-123 -10 -154.5 -42t-31.5 -142v-656q0 -180 51 -270q84 -145 301 -146q115 0 207 44.5t133 117.5q47 88 47 279v553q0 154 -37 204t-155 58v39h475v-39q-127 -16 -160 -61t-33 -201v-535q0 -219 -67 -338q-121 -211 -457 -211q-262 0 -388 128 t-126 395v639q0 113 -31.5 143.5t-152.5 40.5zM471 1608q0 39 29.5 69.5t68.5 30.5q43 0 74 -30.5t31 -71.5t-31 -71t-74 -30q-41 0 -69.5 30t-28.5 73zM879 1608q0 39 29.5 69.5t68.5 30.5q43 0 73.5 -30.5t30.5 -71.5t-30.5 -71t-73.5 -30q-41 0 -69.5 30t-28.5 73z" />
<glyph unicode="&#xdd;" horiz-adv-x="1478" d="M45 1317v39h573v-39q-23 -2 -51 -2q-94 -6 -94 -60q0 -39 35 -90l303 -454l293 463q29 47 29 75q0 37 -31 51.5t-111 16.5v39h449v-39q-78 -6 -133.5 -52t-149.5 -182l-303 -462v-398q0 -117 37 -148.5t174 -35.5v-39h-627v39q139 6 173 40t34 167v356l-268 393 q-154 217 -206 268.5t-126 53.5zM655 1473l301 303q47 47 86 47q72 0 72 -66q0 -47 -61 -86l-316 -198h-82z" />
<glyph unicode="&#xde;" horiz-adv-x="1138" d="M33 0v39q117 10 144.5 44t27.5 163v887q0 111 -29 141.5t-143 42.5v39h567v-39q-125 -10 -156.5 -49t-29.5 -178h164q246 0 389 -100.5t143 -270.5q0 -100 -53 -188.5t-144 -137.5q-125 -70 -358 -69q-59 0 -141 6v-107q0 -113 35.5 -146.5t156.5 -37.5v-39h-573z M414 412q70 -6 116 -6q356 0 357 301q0 158 -98.5 231.5t-309.5 73.5q-39 0 -52 -14.5t-13 -53.5v-532z" />
<glyph unicode="&#xdf;" d="M25 0v31q78 6 101.5 32.5t23.5 108.5v758q0 203 61 311q90 158 303 158q160 0 254 -85t94 -227q0 -111 -58.5 -175t-221.5 -140q168 -33 249 -104q127 -109 127 -287q0 -168 -106.5 -283.5t-259.5 -115.5q-88 0 -143.5 42t-55.5 107q0 41 26.5 69.5t65.5 28.5 q35 0 59.5 -23.5t26.5 -58.5l4 -45q2 -33 16.5 -47t43.5 -14q131 0 131 266q0 414 -270 424q-66 2 -66 35q0 25 59 31q195 20 195 262q0 133 -49 208.5t-137 75.5q-80 0 -128 -59t-48 -160v-1124h-297z" />
<glyph unicode="&#xe0;" horiz-adv-x="909" d="M76 199q0 111 74 178q66 57 132 91t306 130v125q0 170 -156 170q-61 0 -104 -29.5t-43 -70.5q0 -23 6 -50q4 -29 4 -32q0 -35 -27.5 -60.5t-64.5 -25.5q-35 0 -61.5 26.5t-26.5 61.5q0 96 99 162.5t245 66.5q184 0 254 -113q41 -66 41 -215v-399q0 -68 13 -93.5t48 -25.5 q43 0 90 39v-53q-53 -59 -93 -80.5t-91 -21.5q-63 0 -93 34.5t-38 114.5q-176 -150 -299 -149q-94 0 -154.5 61t-60.5 158zM152 1325q0 63 69 64q39 0 86 -48l301 -303h-82l-315 199q-59 39 -59 88zM256 256q0 -66 38 -112t91 -46q70 0 150 47q33 18 43 39t10 68v297 q-184 -68 -258 -131.5t-74 -153.5v-8z" />
<glyph unicode="&#xe1;" horiz-adv-x="909" d="M76 199q0 111 74 178q66 57 132 91t306 130v125q0 170 -156 170q-61 0 -104 -29.5t-43 -70.5q0 -23 6 -50q4 -29 4 -32q0 -35 -27.5 -60.5t-64.5 -25.5q-35 0 -61.5 26.5t-26.5 61.5q0 96 99 162.5t245 66.5q184 0 254 -113q41 -66 41 -215v-399q0 -68 13 -93.5t48 -25.5 q43 0 90 39v-53q-53 -59 -93 -80.5t-91 -21.5q-63 0 -93 34.5t-38 114.5q-176 -150 -299 -149q-94 0 -154.5 61t-60.5 158zM256 256q0 -66 38 -112t91 -46q70 0 150 47q33 18 43 39t10 68v297q-184 -68 -258 -131.5t-74 -153.5v-8zM305 1038l301 303q47 47 86 48 q72 0 72 -66q0 -47 -62 -86l-315 -199h-82z" />
<glyph unicode="&#xe2;" horiz-adv-x="909" d="M76 199q0 111 74 178q66 57 132 91t306 130v125q0 170 -156 170q-61 0 -104 -29.5t-43 -70.5q0 -23 6 -50q4 -29 4 -32q0 -35 -27.5 -60.5t-64.5 -25.5q-35 0 -61.5 26.5t-26.5 61.5q0 96 99 162.5t245 66.5q184 0 254 -113q41 -66 41 -215v-399q0 -68 13 -93.5t48 -25.5 q43 0 90 39v-53q-53 -59 -93 -80.5t-91 -21.5q-63 0 -93 34.5t-38 114.5q-176 -150 -299 -149q-94 0 -154.5 61t-60.5 158zM137 1038l254 342h127l256 -342h-69l-250 211l-248 -211h-70zM256 256q0 -66 38 -112t91 -46q70 0 150 47q33 18 43 39t10 68v297 q-184 -68 -258 -131.5t-74 -153.5v-8z" />
<glyph unicode="&#xe3;" horiz-adv-x="909" d="M76 199q0 111 74 178q66 57 132 91t306 130v125q0 170 -156 170q-61 0 -104 -29.5t-43 -70.5q0 -23 6 -50q4 -29 4 -32q0 -35 -27.5 -60.5t-64.5 -25.5q-35 0 -61.5 26.5t-26.5 61.5q0 96 99 162.5t245 66.5q184 0 254 -113q41 -66 41 -215v-399q0 -68 13 -93.5t48 -25.5 q43 0 90 39v-53q-53 -59 -93 -80.5t-91 -21.5q-63 0 -93 34.5t-38 114.5q-176 -150 -299 -149q-94 0 -154.5 61t-60.5 158zM117 1090q23 100 76 153t131 53q74 0 143 -36l49 -25q66 -31 109 -31q35 0 58 23t50 80h60q-33 -117 -82 -167t-133 -50q-66 0 -166 49l-47 22 q-49 23 -84 23q-72 0 -105 -94h-59zM256 256q0 -66 38 -112t91 -46q70 0 150 47q33 18 43 39t10 68v297q-184 -68 -258 -131.5t-74 -153.5v-8z" />
<glyph unicode="&#xe4;" horiz-adv-x="909" d="M76 199q0 111 74 178q66 57 132 91t306 130v125q0 170 -156 170q-61 0 -104 -29.5t-43 -70.5q0 -23 6 -50q4 -29 4 -32q0 -35 -27.5 -60.5t-64.5 -25.5q-35 0 -61.5 26.5t-26.5 61.5q0 96 99 162.5t245 66.5q184 0 254 -113q41 -66 41 -215v-399q0 -68 13 -93.5t48 -25.5 q43 0 90 39v-53q-53 -59 -93 -80.5t-91 -21.5q-63 0 -93 34.5t-38 114.5q-176 -150 -299 -149q-94 0 -154.5 61t-60.5 158zM150 1174q0 39 29.5 69.5t68.5 30.5q43 0 73.5 -31t30.5 -72t-30.5 -70.5t-73.5 -29.5q-41 0 -69.5 29.5t-28.5 73.5zM256 256q0 -66 38 -112t91 -46 q70 0 150 47q33 18 43 39t10 68v297q-184 -68 -258 -131.5t-74 -153.5v-8zM557 1174q0 39 29.5 69.5t68.5 30.5q43 0 74 -31t31 -72t-31 -70.5t-74 -29.5q-41 0 -69.5 29.5t-28.5 73.5z" />
<glyph unicode="&#xe5;" horiz-adv-x="909" d="M76 199q0 111 74 178q66 57 132 91t306 130v125q0 170 -156 170q-61 0 -104 -29.5t-43 -70.5q0 -23 6 -50q4 -29 4 -32q0 -35 -27.5 -60.5t-64.5 -25.5q-35 0 -61.5 26.5t-26.5 61.5q0 96 99 162.5t245 66.5q184 0 254 -113q41 -66 41 -215v-399q0 -68 13 -93.5t48 -25.5 q43 0 90 39v-53q-53 -59 -93 -80.5t-91 -21.5q-63 0 -93 34.5t-38 114.5q-176 -150 -299 -149q-94 0 -154.5 61t-60.5 158zM250 1274q0 82 59.5 142.5t143.5 60.5t144 -60.5t60 -144.5t-60 -143.5t-144 -59.5q-86 0 -144.5 59.5t-58.5 145.5zM256 256q0 -66 38 -112t91 -46 q70 0 150 47q33 18 43 39t10 68v297q-184 -68 -258 -131.5t-74 -153.5v-8zM319 1274q0 -55 39 -95t93 -40q57 0 97 39t40 94t-40 95t-93 40q-55 0 -95.5 -39t-40.5 -94z" />
<glyph unicode="&#xe6;" horiz-adv-x="1366" d="M78 205q0 92 70.5 160.5t234.5 136.5l176 73l4 130q4 88 -24 141q-23 47 -103 47q-63 0 -105 -31t-34 -71l2 -13v-22l2 -35q2 -45 -21.5 -71.5t-66.5 -26.5q-41 0 -65.5 26.5t-24.5 71.5q0 94 94 157.5t234 63.5q133 0 239 -92q70 53 122 72.5t122 19.5q156 0 233.5 -88 t94.5 -287h-537q2 -152 12.5 -220t42.5 -128q27 -47 79 -74.5t116 -27.5q88 0 154.5 44.5t140.5 153.5l24 -10q-74 -160 -149 -227q-111 -98 -254 -98q-166 0 -264 149q-104 -86 -170 -117.5t-142 -31.5q-104 0 -170.5 62t-66.5 163zM256 256q0 -74 40 -126t97.5 -52t133 37 t75.5 65q0 4 -2 6q-39 111 -39 226v106q-186 -68 -245.5 -119t-59.5 -143zM727 629h340q-4 133 -42 193.5t-120 60.5q-88 0 -129 -59.5t-49 -194.5z" />
<glyph unicode="&#xe7;" horiz-adv-x="909" d="M51 434q0 252 160 393q131 115 289 115q129 0 222 -62.5t93 -148.5q0 -35 -28.5 -60.5t-67.5 -25.5q-72 0 -98 94l-13 45q-16 57 -40.5 78t-80.5 21q-125 0 -201.5 -99.5t-76.5 -257.5q0 -176 89 -287.5t228 -111.5q88 0 151.5 42t137.5 150l29 -18q-80 -162 -168 -236.5 t-213 -84.5l-43 -113q31 6 53 6q82 0 129 -38t47 -103q0 -80 -68.5 -126t-187.5 -46q-92 0 -172 32l29 64q74 -25 133 -25q51 0 82 25t31 65q0 39 -25 56.5t-84 17.5q-35 0 -57 -8l-15 10l78 187q-156 20 -249 144t-93 306z" />
<glyph unicode="&#xe8;" horiz-adv-x="909" d="M51 438q0 264 152 398q119 106 276 106q164 0 262 -117q68 -86 88 -258h-630q6 -166 55 -270q90 -176 264 -176q98 0 171 49t147 166l32 -14q-63 -166 -175.5 -254t-258.5 -88q-176 0 -279.5 123.5t-103.5 334.5zM152 1325q0 63 69 64q39 0 86 -48l301 -303h-82l-315 199 q-59 39 -59 88zM203 633h418q-20 133 -63.5 184t-137.5 51q-184 1 -217 -235z" />
<glyph unicode="&#xe9;" horiz-adv-x="909" d="M51 438q0 264 152 398q119 106 276 106q164 0 262 -117q68 -86 88 -258h-630q6 -166 55 -270q90 -176 264 -176q98 0 171 49t147 166l32 -14q-63 -166 -175.5 -254t-258.5 -88q-176 0 -279.5 123.5t-103.5 334.5zM203 633h418q-20 133 -63.5 184t-137.5 51 q-184 1 -217 -235zM305 1038l301 303q47 47 86 48q72 0 72 -66q0 -47 -62 -86l-315 -199h-82z" />
<glyph unicode="&#xea;" horiz-adv-x="909" d="M51 438q0 264 152 398q119 106 276 106q164 0 262 -117q68 -86 88 -258h-630q6 -166 55 -270q90 -176 264 -176q98 0 171 49t147 166l32 -14q-63 -166 -175.5 -254t-258.5 -88q-176 0 -279.5 123.5t-103.5 334.5zM137 1038l254 342h127l256 -342h-69l-250 211l-248 -211 h-70zM203 633h418q-20 133 -63.5 184t-137.5 51q-184 1 -217 -235z" />
<glyph unicode="&#xeb;" horiz-adv-x="909" d="M51 438q0 264 152 398q119 106 276 106q164 0 262 -117q68 -86 88 -258h-630q6 -166 55 -270q90 -176 264 -176q98 0 171 49t147 166l32 -14q-63 -166 -175.5 -254t-258.5 -88q-176 0 -279.5 123.5t-103.5 334.5zM150 1174q0 39 29.5 69.5t68.5 30.5q43 0 73.5 -31 t30.5 -72t-30.5 -70.5t-73.5 -29.5q-41 0 -69.5 29.5t-28.5 73.5zM203 633h418q-20 133 -63.5 184t-137.5 51q-184 1 -217 -235zM557 1174q0 39 29.5 69.5t68.5 30.5q43 0 74 -31t31 -72t-31 -70.5t-74 -29.5q-41 0 -69.5 29.5t-28.5 73.5z" />
<glyph unicode="&#xec;" horiz-adv-x="569" d="M-16 1325q0 63 69 64q39 0 86 -48l301 -303h-82l-315 199q-59 39 -59 88zM33 0v31q106 6 134 36.5t28 141.5v475q0 68 -15.5 95.5t-52.5 27.5q-33 0 -70 -6l-16 -2v30l317 113l9 -6v-727q0 -111 25.5 -140.5t125.5 -37.5v-31h-485z" />
<glyph unicode="&#xed;" horiz-adv-x="569" d="M33 0v31q106 6 134 36.5t28 141.5v475q0 68 -15.5 95.5t-52.5 27.5q-33 0 -70 -6l-16 -2v30l317 113l9 -6v-727q0 -111 25.5 -140.5t125.5 -37.5v-31h-485zM135 1038l301 303q47 47 86 48q72 0 72 -66q0 -47 -62 -86l-315 -199h-82z" />
<glyph unicode="&#xee;" horiz-adv-x="569" d="M-33 1038l254 342h127l256 -342h-69l-250 211l-248 -211h-70zM33 0v31q106 6 134 36.5t28 141.5v475q0 68 -15.5 95.5t-52.5 27.5q-33 0 -70 -6l-16 -2v30l317 113l9 -6v-727q0 -111 25.5 -140.5t125.5 -37.5v-31h-485z" />
<glyph unicode="&#xef;" horiz-adv-x="569" d="M23 1174q0 39 29.5 69.5t68.5 30.5q43 0 73.5 -31t30.5 -72t-30.5 -70.5t-73.5 -29.5q-41 0 -69.5 29.5t-28.5 73.5zM33 0v31q106 6 134 36.5t28 141.5v475q0 68 -15.5 95.5t-52.5 27.5q-33 0 -70 -6l-16 -2v30l317 113l9 -6v-727q0 -111 25.5 -140.5t125.5 -37.5v-31 h-485zM348 1174q0 39 29.5 69.5t68.5 30.5q43 0 74 -31t31 -72t-31 -70.5t-74 -29.5q-41 0 -69.5 29.5t-28.5 73.5z" />
<glyph unicode="&#xf0;" d="M59 457q0 207 125 346t310 139q74 0 127 -25.5t131 -97.5q-23 113 -66 190t-133 169l-252 -134l-68 62l248 131q-127 90 -272 115l86 47q100 -8 166.5 -28.5t144.5 -67.5l195 102l67 -62l-186 -98q129 -123 186 -241q96 -197 97 -420q0 -147 -49.5 -281.5t-133.5 -214.5 q-115 -109 -276 -108q-190 0 -318.5 136t-128.5 341zM244 565q0 -225 90 -395q72 -133 201 -133q117 0 181 99.5t64 275.5q0 209 -82 341t-213 132q-109 0 -175 -88t-66 -232z" />
<glyph unicode="&#xf1;" d="M33 815v35q152 45 282 92l15 -4v-162q104 98 164.5 132t132.5 34q113 0 177 -81t64 -226v-469q0 -76 25 -101.5t100 -33.5v-31h-426v31q78 6 103.5 40.5t25.5 131.5v428q0 199 -149 198q-51 0 -94 -23.5t-117 -92.5v-576q0 -55 28.5 -77.5t106.5 -28.5v-31h-434v31 q78 6 102.5 35.5t24.5 117.5v508q0 76 -16.5 103.5t-59.5 27.5q-39 0 -55 -8zM174 1090q23 100 76 153t131 53q74 0 143 -36l49 -25q66 -31 109 -31q35 0 58.5 23t50.5 80h59q-33 -117 -82 -167t-133 -50q-66 0 -166 49l-47 22q-49 23 -84 23q-72 0 -105 -94h-59z" />
<glyph unicode="&#xf2;" d="M59 463q0 211 126 345t327 134q197 0 324 -131t127 -332q0 -213 -131.5 -356t-324 -143t-320.5 138t-128 345zM209 1325q0 63 70 64q39 0 86 -48l301 -303h-82l-316 199q-59 39 -59 88zM244 563q0 -227 90 -395q70 -131 198 -131q115 0 180.5 98t65.5 273q0 211 -82 344 t-211 133q-109 0 -175 -88t-66 -234z" />
<glyph unicode="&#xf3;" d="M59 463q0 211 126 345t327 134q197 0 324 -131t127 -332q0 -213 -131.5 -356t-324 -143t-320.5 138t-128 345zM244 563q0 -227 90 -395q70 -131 198 -131q115 0 180.5 98t65.5 273q0 211 -82 344t-211 133q-109 0 -175 -88t-66 -234zM362 1038l302 303q47 47 86 48 q72 0 71 -66q0 -47 -61 -86l-316 -199h-82z" />
<glyph unicode="&#xf4;" d="M59 463q0 211 126 345t327 134q197 0 324 -131t127 -332q0 -213 -131.5 -356t-324 -143t-320.5 138t-128 345zM195 1038l254 342h126l256 -342h-69l-250 211l-248 -211h-69zM244 563q0 -227 90 -395q70 -131 198 -131q115 0 180.5 98t65.5 273q0 211 -82 344t-211 133 q-109 0 -175 -88t-66 -234z" />
<glyph unicode="&#xf5;" d="M59 463q0 211 126 345t327 134q197 0 324 -131t127 -332q0 -213 -131.5 -356t-324 -143t-320.5 138t-128 345zM174 1090q23 100 76 153t131 53q74 0 143 -36l49 -25q66 -31 109 -31q35 0 58.5 23t50.5 80h59q-33 -117 -82 -167t-133 -50q-66 0 -166 49l-47 22 q-49 23 -84 23q-72 0 -105 -94h-59zM244 563q0 -227 90 -395q70 -131 198 -131q115 0 180.5 98t65.5 273q0 211 -82 344t-211 133q-109 0 -175 -88t-66 -234z" />
<glyph unicode="&#xf6;" d="M59 463q0 211 126 345t327 134q197 0 324 -131t127 -332q0 -213 -131.5 -356t-324 -143t-320.5 138t-128 345zM207 1174q0 39 29.5 69.5t68.5 30.5q43 0 74 -31t31 -72t-31 -70.5t-74 -29.5q-41 0 -69.5 29.5t-28.5 73.5zM244 563q0 -227 90 -395q70 -131 198 -131 q115 0 180.5 98t65.5 273q0 211 -82 344t-211 133q-109 0 -175 -88t-66 -234zM614 1174q0 39 30 69.5t69 30.5q43 0 73.5 -31t30.5 -72t-30.5 -70.5t-73.5 -29.5q-41 0 -70 29.5t-29 73.5z" />
<glyph unicode="&#xf7;" horiz-adv-x="1155" d="M61 451v135h1033v-135h-1033zM465 90q0 47 34 82t79 35q47 0 80.5 -35t33.5 -82q0 -45 -34.5 -77.5t-82.5 -32.5q-45 0 -77.5 32.5t-32.5 77.5zM465 940q0 47 34 82t79 35q47 0 80.5 -35t33.5 -82q0 -45 -34.5 -78t-82.5 -33q-45 0 -77.5 33t-32.5 78z" />
<glyph unicode="&#xf8;" d="M59 465q0 209 126 343t325 134q90 0 188 -37l117 223h80l-133 -256q82 -59 123 -118q78 -123 78 -275q0 -213 -131.5 -356t-325.5 -143q-96 0 -191 43l-133 -252h-76l150 286q-86 68 -129 142q-68 123 -68 266zM244 565q0 -209 80 -377l325 623q-76 74 -164 74 q-109 0 -175 -88t-66 -232zM367 123q72 -86 168 -86q115 0 179 100.5t64 278.5t-82 334z" />
<glyph unicode="&#xf9;" d="M18 893v29h299v-668q0 -63 43 -109.5t103 -46.5q94 0 180 70q39 31 39 108v482q0 76 -27.5 100.5t-124.5 28.5v35h324v-703q0 -72 23.5 -94.5t93.5 -22.5h10v-28q-160 -43 -281 -92l-8 4v170l-88 -88q-88 -88 -211 -88q-113 0 -180.5 72.5t-67.5 193.5v516 q0 72 -26.5 99.5t-100.5 31.5zM166 1325q0 63 70 64q39 0 86 -48l301 -303h-82l-316 199q-59 39 -59 88z" />
<glyph unicode="&#xfa;" d="M18 893v29h299v-668q0 -63 43 -109.5t103 -46.5q94 0 180 70q39 31 39 108v482q0 76 -27.5 100.5t-124.5 28.5v35h324v-703q0 -72 23.5 -94.5t93.5 -22.5h10v-28q-160 -43 -281 -92l-8 4v170l-88 -88q-88 -88 -211 -88q-113 0 -180.5 72.5t-67.5 193.5v516 q0 72 -26.5 99.5t-100.5 31.5zM362 1038l302 303q47 47 86 48q72 0 71 -66q0 -47 -61 -86l-316 -199h-82z" />
<glyph unicode="&#xfb;" d="M18 893v29h299v-668q0 -63 43 -109.5t103 -46.5q94 0 180 70q39 31 39 108v482q0 76 -27.5 100.5t-124.5 28.5v35h324v-703q0 -72 23.5 -94.5t93.5 -22.5h10v-28q-160 -43 -281 -92l-8 4v170l-88 -88q-88 -88 -211 -88q-113 0 -180.5 72.5t-67.5 193.5v516 q0 72 -26.5 99.5t-100.5 31.5zM168 1038l254 342h127l256 -342h-70l-250 211l-247 -211h-70z" />
<glyph unicode="&#xfc;" d="M18 893v29h299v-668q0 -63 43 -109.5t103 -46.5q94 0 180 70q39 31 39 108v482q0 76 -27.5 100.5t-124.5 28.5v35h324v-703q0 -72 23.5 -94.5t93.5 -22.5h10v-28q-160 -43 -281 -92l-8 4v170l-88 -88q-88 -88 -211 -88q-113 0 -180.5 72.5t-67.5 193.5v516 q0 72 -26.5 99.5t-100.5 31.5zM168 1174q0 39 29.5 69.5t68.5 30.5q43 0 74 -31t31 -72t-31 -70.5t-74 -29.5q-41 0 -69.5 29.5t-28.5 73.5zM575 1174q0 39 30 69.5t69 30.5q43 0 73.5 -31t30.5 -72t-30.5 -70.5t-73.5 -29.5q-41 0 -70 29.5t-29 73.5z" />
<glyph unicode="&#xfd;" d="M29 893v29h422v-31q-66 -2 -92.5 -14.5t-26.5 -40.5q0 -31 20 -78l236 -518l198 565q8 18 9 35q0 51 -99 51v31h277v-31q-37 -4 -57.5 -23.5t-41.5 -68.5l-315 -836q-82 -221 -163 -315t-183 -94q-66 0 -109 33.5t-43 84.5q0 37 27 63.5t62 26.5q47 0 108 -22 q29 -14 51.5 -14t52 26.5t50.5 65.5q27 45 54.5 121.5t27.5 99.5q0 45 -91 207l-30 61l-6 17l-234 503q-25 53 -104 66zM362 1038l302 303q47 47 86 48q72 0 71 -66q0 -47 -61 -86l-316 -199h-82z" />
<glyph unicode="&#xfe;" d="M10 -408q90 8 117 34t27 106v1442q0 63 -19.5 83.5t-81.5 20.5q-23 0 -35 -2v33q190 53 297 90l11 -6v-611q133 160 295 160q150 0 246 -123t96 -313q0 -223 -124 -374.5t-307 -151.5q-66 0 -109.5 18t-96.5 70v-322q0 -96 32.5 -124t147.5 -30v-36h-496v36zM326 180 q0 -45 70.5 -90t142.5 -45q111 0 179 105.5t68 275.5q0 178 -68.5 285.5t-182.5 107.5q-72 0 -140.5 -45t-68.5 -90v-504z" />
<glyph unicode="&#xff;" d="M29 893v29h422v-31q-66 -2 -92.5 -14.5t-26.5 -40.5q0 -31 20 -78l236 -518l198 565q8 18 9 35q0 51 -99 51v31h277v-31q-37 -4 -57.5 -23.5t-41.5 -68.5l-315 -836q-82 -221 -163 -315t-183 -94q-66 0 -109 33.5t-43 84.5q0 37 27 63.5t62 26.5q47 0 108 -22 q29 -14 51.5 -14t52 26.5t50.5 65.5q27 45 54.5 121.5t27.5 99.5q0 45 -91 207l-30 61l-6 17l-234 503q-25 53 -104 66zM240 1174q0 39 29.5 69.5t68.5 30.5q43 0 73.5 -31t30.5 -72t-30.5 -70.5t-73.5 -29.5q-41 0 -69.5 29.5t-28.5 73.5zM647 1174q0 39 29.5 69.5 t68.5 30.5q43 0 74 -31t31 -72t-31 -70.5t-74 -29.5q-41 0 -69.5 29.5t-28.5 73.5z" />
<glyph unicode="&#x152;" horiz-adv-x="1820" d="M61 659q0 176 54.5 322.5t152.5 232.5q172 154 432 154q35 0 134 -6q111 -6 215 -6h667v-289h-47q-18 137 -80.5 176t-263.5 39h-104q-86 0 -110 -8t-24 -41v-483h213q186 0 232 63q31 43 39 137h43v-479h-43q-14 121 -54 162t-147 41h-283v-502q0 -57 24 -76.5t91 -17.5 l254 4q96 2 163 59.5t144 202.5h49l-90 -344h-716q-84 0 -248 -8q-94 -4 -119 -4q-236 0 -393 157q-184 182 -185 514zM291 666q0 -291 99 -447t288 -156q109 0 157 48t48 157v811q0 113 -48.5 164t-154.5 51q-186 0 -287.5 -163.5t-101.5 -464.5z" />
<glyph unicode="&#x153;" horiz-adv-x="1478" d="M61 446q0 117 41 223.5t113 174.5q109 98 260 98q94 0 164 -35t147 -121q63 86 123 121t144 35q166 0 258 -127q61 -82 69 -248h-520q6 -133 22.5 -204.5t57.5 -143.5q61 -102 184 -102q74 0 134.5 41t132.5 139l22 -12q-80 -166 -164 -235.5t-202 -69.5q-94 0 -155 45 t-108 149q-59 -104 -127.5 -149t-173.5 -45q-186 0 -304 131t-118 335zM246 555q0 -522 246 -522q211 0 210 375q0 229 -60 352t-173 123q-86 0 -154 -68q-31 -33 -50 -106.5t-19 -153.5zM858 629h328v55q0 86 -46 142.5t-116 56.5q-164 0 -166 -254z" />
<glyph unicode="&#x178;" horiz-adv-x="1478" d="M45 1317v39h573v-39q-23 -2 -51 -2q-94 -6 -94 -60q0 -39 35 -90l303 -454l293 463q29 47 29 75q0 37 -31 51.5t-111 16.5v39h449v-39q-78 -6 -133.5 -52t-149.5 -182l-303 -462v-398q0 -117 37 -148.5t174 -35.5v-39h-627v39q139 6 173 40t34 167v356l-268 393 q-154 217 -206 268.5t-126 53.5zM469 1608q0 39 29.5 69.5t68.5 30.5q43 0 74 -30.5t31 -71.5t-31 -71t-74 -30q-41 0 -69.5 30t-28.5 73zM877 1608q0 39 29.5 69.5t68.5 30.5q43 0 73.5 -30.5t30.5 -71.5t-30.5 -71t-73.5 -30q-41 0 -69.5 30t-28.5 73z" />
<glyph unicode="&#x2c6;" horiz-adv-x="681" d="M23 1038l253 342h127l256 -342h-69l-250 211l-248 -211h-69z" />
<glyph unicode="&#x2dc;" horiz-adv-x="681" d="M2 1090q23 100 76 153t131 53q74 0 143 -36l49 -25q66 -31 109 -31q35 0 58 23t50 80h60q-33 -117 -82 -167t-133 -50q-66 0 -166 49l-47 22q-49 23 -84 23q-72 0 -105 -94h-59z" />
<glyph unicode="&#x2000;" horiz-adv-x="937" />
<glyph unicode="&#x2001;" horiz-adv-x="1874" />
<glyph unicode="&#x2002;" horiz-adv-x="937" />
<glyph unicode="&#x2003;" horiz-adv-x="1874" />
<glyph unicode="&#x2004;" horiz-adv-x="624" />
<glyph unicode="&#x2005;" horiz-adv-x="468" />
<glyph unicode="&#x2006;" horiz-adv-x="312" />
<glyph unicode="&#x2007;" horiz-adv-x="312" />
<glyph unicode="&#x2008;" horiz-adv-x="234" />
<glyph unicode="&#x2009;" horiz-adv-x="374" />
<glyph unicode="&#x200a;" horiz-adv-x="104" />
<glyph unicode="&#x2010;" horiz-adv-x="681" d="M80 397v129h504v-129h-504z" />
<glyph unicode="&#x2011;" horiz-adv-x="681" d="M80 397v129h504v-129h-504z" />
<glyph unicode="&#x2012;" horiz-adv-x="681" d="M80 397v129h504v-129h-504z" />
<glyph unicode="&#x2013;" d="M0 412v100h1024v-100h-1024z" />
<glyph unicode="&#x2014;" horiz-adv-x="2048" d="M0 412v100h2048v-100h-2048z" />
<glyph unicode="&#x2018;" horiz-adv-x="681" d="M236 1069q0 92 63.5 178t165.5 137l18 -38q-168 -115 -168 -218q0 -29 29 -28q2 0 16 4q25 4 39 4q55 0 88 -28.5t33 -75.5q0 -51 -33.5 -84t-87.5 -33q-70 0 -116.5 52t-46.5 130z" />
<glyph unicode="&#x2019;" horiz-adv-x="681" d="M162 1268q0 51 33.5 83.5t87.5 32.5q70 0 116.5 -52t46.5 -130q0 -92 -63.5 -178t-165.5 -137l-18 39q168 115 168 217q0 29 -29 28q-2 0 -16 -4q-25 -4 -39 -4q-55 0 -88 28t-33 77z" />
<glyph unicode="&#x201a;" horiz-adv-x="681" d="M162 92q0 51 33.5 84t87.5 33q70 0 116.5 -52.5t46.5 -129.5q0 -92 -63.5 -178.5t-165.5 -137.5l-18 39q168 115 168 217q0 29 -29 29q-2 0 -16 -4q-25 -4 -39 -4q-55 0 -88 27.5t-33 76.5z" />
<glyph unicode="&#x201c;" horiz-adv-x="909" d="M88 1069q0 92 63.5 178t165.5 137l19 -38q-168 -115 -168 -218q0 -29 29 -28q2 0 16 4q25 4 39 4q55 0 88 -27.5t33 -76.5q0 -51 -34 -84t-87 -33q-70 0 -117 52t-47 130zM563 1069q0 92 64 178t166 137l18 -38q-168 -115 -168 -218q0 -29 29 -28q2 0 16 4q25 4 39 4 q55 0 88 -27.5t33 -76.5q0 -51 -34 -84t-87 -33q-70 0 -117 52t-47 130z" />
<glyph unicode="&#x201d;" horiz-adv-x="909" d="M61 1268q0 51 34 83.5t87 32.5q70 0 117 -52t47 -130q0 -92 -63.5 -178t-165.5 -137l-19 39q168 115 168 217q0 29 -28 28q-2 0 -17 -4q-25 -4 -39 -4q-57 0 -89 28t-32 77zM537 1268q0 51 33.5 83.5t86.5 32.5q70 0 117 -52t47 -130q0 -92 -63.5 -178t-165.5 -137 l-19 39q168 115 168 217q0 29 -28 28q-2 0 -17 -4q-25 -4 -39 -4q-57 0 -88.5 28t-31.5 77z" />
<glyph unicode="&#x201e;" horiz-adv-x="909" d="M92 92q0 51 34 84t87 33q70 0 117 -52.5t47 -129.5q0 -92 -64 -178.5t-166 -137.5l-18 39q168 115 168 217q0 29 -29 29q-2 0 -16 -4q-25 -4 -39 -4q-57 0 -89 27.5t-32 76.5zM567 92q0 51 34 84t87 33q70 0 117 -52.5t47 -129.5q0 -92 -63.5 -178.5t-165.5 -137.5 l-19 39q168 115 168 217q0 29 -29 29q-2 0 -16 -4q-25 -4 -39 -4q-57 0 -89 27.5t-32 76.5z" />
<glyph unicode="&#x2022;" horiz-adv-x="716" d="M82 680q0 115 79.5 194.5t194.5 79.5q119 0 199 -80.5t80 -199.5q0 -111 -82 -192t-195 -81q-115 0 -195.5 81t-80.5 198z" />
<glyph unicode="&#x2026;" horiz-adv-x="2048" d="M227 88q0 47 34 82t79 35q47 0 81 -35t34 -82q0 -45 -35 -78t-82 -33q-45 0 -78 33t-33 78zM909 88q0 47 34 82t79 35q47 0 81 -35t34 -82q0 -45 -35 -78t-82 -33q-45 0 -78 33t-33 78zM1591 88q0 47 34 82t79 35q47 0 81 -35t34 -82q0 -45 -35 -78t-82 -33q-45 0 -78 33 t-33 78z" />
<glyph unicode="&#x202f;" horiz-adv-x="374" />
<glyph unicode="&#x2039;" horiz-adv-x="681" d="M129 455l133 120q12 8 33 29l6 4q6 4 15.5 13.5t17.5 16.5t16 13q104 94 123 121q66 80 90 80q20 0 21 -21q0 -45 -111 -182q-104 -125 -154 -190q8 -10 15 -19l6 -8q242 -305 242 -346q0 -18 -19 -18q-12 0 -22 12q-162 160 -348 319z" />
<glyph unicode="&#x203a;" horiz-adv-x="681" d="M98 831q0 20 21 21q25 0 90 -80q8 -18 125 -121q23 -23 47 -43l6 -4q20 -20 33 -29l133 -120l-64 -56q-188 -164 -348 -319q-10 -12 -20 -12q-20 0 -21 18q0 41 242 346l12 14l8 13l-153 190q-111 133 -111 182z" />
<glyph unicode="&#x205f;" horiz-adv-x="468" />
<glyph unicode="&#x20ac;" d="M-33 502l56 84h88q-2 27 -2 76q0 33 2 53h-144l56 84h96q35 256 171 417.5t316 161.5q106 0 215 -71q27 -16 35 -17q33 0 51 90h37l33 -456h-35q-18 133 -59 215q-43 84 -115 134t-147 50q-88 0 -159 -66.5t-110 -185.5q-31 -100 -47 -272h451l-56 -84h-399 q-2 -41 -2 -67.5t2 -61.5h317l-53 -84h-258q23 -215 117 -341t238 -126q90 0 177 54t138 144v-69q-59 -90 -158.5 -141.5t-212.5 -51.5q-182 0 -314 143.5t-171 387.5h-154z" />
<glyph unicode="&#x2122;" horiz-adv-x="2007" d="M61 1176v180h707v-180h-41q-23 76 -53.5 107.5t-83.5 31.5h-103v-635q0 -74 12.5 -87t90.5 -24v-41h-350v41q76 10 89 23.5t13 87.5v635h-100q-55 0 -87 -32t-53 -107h-41zM858 1315v41h248l315 -633l328 633h211v-41q-66 -4 -90.5 -28.5t-24.5 -84.5v-522 q0 -74 13.5 -87t89.5 -24v-41h-349v41q70 8 87 19q14 10 14 92v483l-316 -639h-22l-309 635v-457q0 -74 21.5 -99t86.5 -34v-41h-268v41q66 8 86 34t20 99v510q-43 98 -141 103z" />
<glyph unicode="&#x25fc;" horiz-adv-x="921" d="M0 0v922h922v-922h-922z" />
<glyph unicode="&#xfb01;" horiz-adv-x="1138" d="M63 854v68h142q10 123 30.5 191.5t65.5 131.5q113 154 348 154q119 0 189.5 -39t70.5 -105q0 -35 -20.5 -57t-52.5 -22q-47 0 -101 75q-68 96 -145 97q-70 0 -124 -42t-77 -108q-16 -55 -16 -188v-88h321q102 0 232 20l8 -6q-4 -109 -4 -201v-536q0 -98 25.5 -129 t111.5 -39v-31h-451v31q94 8 118 35.5t24 132.5v540q0 82 -30 98.5t-177 16.5h-176v-674q0 -84 27.5 -113.5t113.5 -35.5v-31h-450v31q86 2 111.5 32.5t25.5 129.5v661h-140z" />
<glyph unicode="&#xfb02;" horiz-adv-x="1138" d="M66 0v31q76 6 100 22q41 27 41 162v641h-141v66h145q6 135 25.5 208.5t64.5 139.5q92 129 248 129q78 0 166 -35q49 -16 61 -16q25 0 86 28q39 20 64 23l10 -4v-1229q0 -80 23.5 -104.5t107.5 -30.5v-31h-440v31q80 6 108.5 35.5t28.5 105.5v684h-385v-694 q0 -70 28.5 -95.5t116.5 -35.5v-31h-458zM379 922h385v288q-14 -14 -33 -14q-61 0 -113 76q-47 72 -106 71q-133 0 -133 -315v-106z" />
</font>
</defs>
</svg>
